<svg width="101" height="69" viewBox="0 0 101 69" fill="none" xmlns="http://www.w3.org/2000/svg">
<path d="M76.1932 41.2965C75.948 40.8929 75.5087 40.6631 75.0285 40.6835L60.2759 41.5263L60.4445 41.4344L57.0935 35.4016C56.8687 34.998 56.4396 34.7426 55.9748 34.7426H51.1628L47.9293 28.9192C47.7046 28.5157 47.2755 28.2603 46.8106 28.2603H33.4015V25.2771C33.4015 24.5721 32.8294 24 32.1244 24H22.3728C21.6679 24 21.0958 24.5721 21.0958 25.2771V28.2603H17.9849C17.3974 28.2603 16.8866 28.6587 16.7487 29.2257L12.9839 44.2286L9.82702 44.4074C9.15274 44.4483 8.62148 45.005 8.62148 45.6844V58.7411C7.67646 58.5061 7.03282 58.0413 6.28191 57.4896C5.06104 56.6007 3.68182 55.5842 1 55.5842V58.1383C2.84407 58.1383 3.69204 58.7615 4.76987 59.5533C5.99074 60.4472 7.36996 61.4638 10.0518 61.4638C12.7336 61.4638 14.1128 60.4472 15.3337 59.5533C16.4115 58.7615 17.2595 58.1383 19.1036 58.1383C20.9476 58.1383 21.7956 58.7615 22.8734 59.5533C24.0943 60.4472 25.4735 61.4638 28.1554 61.4638C30.8372 61.4638 32.2164 60.4472 33.4373 59.5533C34.5151 58.7615 35.3631 58.1383 37.2071 58.1383C39.0512 58.1383 39.8992 58.7615 40.977 59.5533C42.1979 60.4472 43.5771 61.4638 46.2589 61.4638C48.9407 61.4638 50.32 60.4472 51.5408 59.5533C52.6136 58.7615 53.4666 58.1383 55.3107 58.1383C57.1548 58.1383 58.0027 58.7615 59.0806 59.5533C60.3014 60.4472 61.6807 61.4638 64.3625 61.4638C67.0443 61.4638 68.4235 60.4472 69.6444 59.5533C70.7222 58.7615 71.5702 58.1383 73.4143 58.1383V55.5842C70.7325 55.5842 69.3532 56.6007 68.1324 57.4947C67.7339 57.7858 67.3661 58.0566 66.9626 58.2813L76.2187 42.6042C76.4435 42.2006 76.4383 41.7 76.1932 41.2965ZM18.981 30.8144H22.3728C23.0778 30.8144 23.6499 30.2423 23.6499 29.5373V26.5541H30.8474V29.5373C30.8474 30.2423 31.4195 30.8144 32.1244 30.8144H46.0648L48.246 34.7426H39.1534V37.2967H55.2239L57.6554 41.6796L15.6504 44.0805L18.981 30.8144ZM63.632 58.8739C62.263 58.7309 61.5019 58.1792 60.5773 57.4947C59.3564 56.6007 57.9772 55.5842 55.2954 55.5842C52.6136 55.5842 51.2343 56.6007 50.0135 57.4947C48.9356 58.2864 48.0877 58.9097 46.2436 58.9097C44.3995 58.9097 43.5516 58.2864 42.4737 57.4947C41.2529 56.6007 39.8736 55.5842 37.1918 55.5842C34.51 55.5842 33.1308 56.6007 31.9099 57.4947C30.8321 58.2864 29.9841 58.9097 28.14 58.9097C26.296 58.9097 25.448 58.2864 24.3702 57.4947C23.1493 56.6007 21.7701 55.5842 19.0882 55.5842C16.4064 55.5842 15.0272 56.6007 13.8063 57.4947C12.9788 58.1026 12.279 58.6083 11.1654 58.8126V46.8951L72.7757 43.3704L63.632 58.8739Z" fill="#ED2024" stroke="#ED2024" stroke-width="0.8"/>
<path d="M55.296 62.6592C52.6142 62.6592 51.235 63.6757 50.0141 64.5697C48.9414 65.3614 48.0883 65.9846 46.2442 65.9846C44.4002 65.9846 43.5522 65.3614 42.4744 64.5697C41.2535 63.6757 39.8743 62.6592 37.1925 62.6592C34.5106 62.6592 33.1314 63.6757 31.9106 64.5697C30.8327 65.3614 29.9848 65.9846 28.1407 65.9846C26.2966 65.9846 25.4486 65.3614 24.3708 64.5697C23.1499 63.6757 21.7707 62.6592 19.0889 62.6592C16.4071 62.6592 15.0279 63.6757 13.807 64.5697C12.7291 65.3614 11.8812 65.9846 10.0371 65.9846V68.5388C12.7189 68.5388 14.0982 67.5222 15.319 66.6283C16.3969 65.8365 17.2448 65.2133 19.0889 65.2133C20.933 65.2133 21.7809 65.8365 22.8588 66.6283C24.0796 67.5222 25.4589 68.5388 28.1407 68.5388C30.8225 68.5388 32.2017 67.5222 33.4226 66.6283C34.5004 65.8365 35.3484 65.2133 37.1925 65.2133C39.0365 65.2133 39.8845 65.8365 40.9623 66.6283C42.1832 67.5222 43.5624 68.5388 46.2442 68.5388C48.9261 68.5388 50.3053 67.5222 51.5262 66.6283C52.5989 65.8365 53.452 65.2133 55.296 65.2133C57.1401 65.2133 57.9881 65.8365 59.0659 66.6283C60.2868 67.5222 61.666 68.5388 64.3478 68.5388V65.9846C62.5037 65.9846 61.6558 65.3614 60.5779 64.5697C59.3571 63.6757 57.9779 62.6592 55.296 62.6592Z" fill="#ED2024" stroke="#ED2024" stroke-width="0.8"/>
<path d="M27.2105 34.6606H22.373V37.2148H27.2105V34.6606Z" fill="#ED2024" stroke="#ED2024" stroke-width="0.8"/>
<path d="M35.3736 34.6606H30.5361V37.2148H35.3736V34.6606Z" fill="#ED2024" stroke="#ED2024" stroke-width="0.8"/>
<path d="M78.9334 19.0276C78.82 19.0276 78.7066 19.0114 78.5932 18.9466C78.2044 18.7684 78.0262 18.2986 78.2206 17.9098L81.6549 10.7011L76.8598 11.1385C76.5845 11.1709 76.3253 11.0413 76.1633 10.8307C76.0013 10.6201 75.9527 10.3447 76.0499 10.0855L79.225 1.51601C79.3708 1.11103 79.8243 0.90043 80.2293 1.04623C80.6343 1.19202 80.8449 1.64561 80.6991 2.05059L77.9452 9.46993L82.8698 9.01635C83.1614 8.98395 83.4206 9.11354 83.5826 9.34033C83.7446 9.56713 83.777 9.85871 83.6474 10.1179L79.6299 18.5578C79.5165 18.8656 79.225 19.0276 78.9334 19.0276Z" fill="#ED2024" stroke="#ED2024" stroke-width="1.3"/>
<path d="M95.6207 14.1645C95.1833 14.1645 94.8269 13.8081 94.8269 13.3869V10.8598H92.3484C91.911 10.8598 91.5546 10.5034 91.5546 10.0823C91.5546 9.64487 91.911 9.30469 92.3484 9.30469H94.8269V6.77758C94.8269 6.34019 95.1833 6 95.6207 6C96.0581 6 96.4145 6.35639 96.4145 6.77758V9.30469H98.9254C99.3628 9.30469 99.7192 9.66107 99.7192 10.0823C99.7192 10.5196 99.3628 10.8598 98.9254 10.8598H96.4145V13.3869C96.3983 13.8081 96.0419 14.1645 95.6207 14.1645ZM68.3707 10.8598H61.7938C61.3564 10.8598 61 10.5034 61 10.0823C61 9.64487 61.3564 9.30469 61.7938 9.30469H68.3707C68.8081 9.30469 69.1645 9.66107 69.1645 10.0823C69.1645 10.5196 68.8081 10.8598 68.3707 10.8598Z" fill="#ED2024" stroke="#ED2024" stroke-width="1.3"/>
</svg>
