<svg width="71" height="71" viewBox="0 0 71 71" fill="none" xmlns="http://www.w3.org/2000/svg">
<path d="M35.1613 12.9724H35.1895C36.7689 12.9583 38.2637 12.3378 39.3777 11.2097C40.4917 10.0815 41.0981 8.58674 41.084 7.00734C41.0699 3.74983 38.4047 1.11279 35.1613 1.11279H35.1331C33.5537 1.12689 32.0589 1.74737 30.9448 2.87552C29.8308 4.00366 29.2244 5.49845 29.2385 7.07784C29.2526 10.3354 31.9179 12.9724 35.1613 12.9724ZM33.3562 5.25872C33.8357 4.77926 34.4703 4.51132 35.1472 4.49722H35.1613C36.5573 4.49722 37.6996 5.62536 37.6996 7.02144C37.6996 7.69832 37.4457 8.34701 36.9663 8.82647C36.4868 9.30593 35.8523 9.57386 35.1754 9.58796H35.1613C33.7652 9.58796 32.6229 8.45982 32.6229 7.06374C32.6229 6.38686 32.8768 5.73818 33.3562 5.25872Z" fill="#ED2024" stroke="#ED2024"/>
<path d="M43.0865 18.6837C41.3096 15.7646 38.6021 14.2275 35.2741 14.2275C35.26 14.2275 35.2318 14.2275 35.2177 14.2275C31.8614 14.2416 29.1539 15.821 27.3912 18.7683C26.122 20.8977 25.3182 23.7744 25.008 27.314C24.9234 28.2447 25.6144 29.0626 26.5451 29.1472C26.6015 29.1472 26.6438 29.1472 26.6861 29.1472C27.5604 29.1472 28.2937 28.4844 28.3642 27.596C28.9424 20.9823 31.241 17.6261 35.2177 17.5979C35.2318 17.5979 35.2459 17.5979 35.26 17.5979C39.2085 17.5979 41.5353 20.94 42.1839 27.5255C42.2685 28.4562 43.1006 29.1331 44.0313 29.0485C44.962 28.9639 45.6389 28.1319 45.5543 27.2012C45.2017 23.6616 44.3697 20.799 43.0865 18.6837Z" fill="#ED2024" stroke="#ED2024"/>
<path d="M59.6001 53.4587H59.6283C61.2077 53.4446 62.7025 52.8241 63.8165 51.696C64.9306 50.5679 65.537 49.0731 65.537 47.4937C65.5229 44.2362 62.8576 41.5991 59.6142 41.5991H59.586C56.3144 41.6132 53.6774 44.2926 53.6915 47.5642C53.6915 50.8076 56.3567 53.4587 59.6001 53.4587ZM59.586 44.9835H59.6001C60.9962 44.9835 62.1384 46.1117 62.1384 47.5078C62.1384 48.1847 61.8846 48.8333 61.4051 49.3128C60.9257 49.7923 60.2911 50.0602 59.6142 50.0743H59.6001C58.204 50.0743 57.0618 48.9462 57.0618 47.5501C57.0477 46.1399 58.1899 44.9977 59.586 44.9835Z" fill="#ED2024" stroke="#ED2024"/>
<path d="M69.9927 67.6733C69.6543 64.1338 68.8223 61.2711 67.5249 59.1559C65.7481 56.2368 63.0406 54.6997 59.7126 54.6997C59.6985 54.6997 59.6702 54.6997 59.6561 54.6997C56.2999 54.7138 53.5924 56.2932 51.8297 59.2405C50.5605 61.3698 49.7567 64.2466 49.4465 67.7862C49.3619 68.7169 50.0528 69.5348 50.9836 69.6194C51.04 69.6194 51.0823 69.6194 51.1246 69.6194C51.9989 69.6194 52.7322 68.9566 52.8027 68.0682C53.3809 61.4545 55.6794 58.0982 59.6561 58.07C59.6702 58.07 59.6843 58.07 59.6985 58.07C63.6469 58.07 65.9737 61.4122 66.6224 67.9977C66.707 68.9284 67.539 69.6053 68.4697 69.5207C69.4005 69.4361 70.0773 68.6041 69.9927 67.6733Z" fill="#ED2024" stroke="#ED2024"/>
<path d="M35.3026 32.757C35.7538 32.757 36.1769 32.5737 36.5012 32.2634C36.8115 31.9532 36.9948 31.516 36.9948 31.0648C36.9948 30.6135 36.8115 30.1764 36.5012 29.8661C36.191 29.5559 35.7538 29.3726 35.3026 29.3726C34.8513 29.3726 34.4142 29.5559 34.1039 29.8661C33.7937 30.1764 33.6104 30.6135 33.6104 31.0648C33.6104 31.516 33.7937 31.9532 34.1039 32.2634C34.4142 32.5737 34.8513 32.757 35.3026 32.757Z" fill="#ED2024" stroke="#ED2024"/>
<path d="M35.3311 40.076C35.3452 40.076 35.3452 40.076 35.3311 40.076C36.2759 40.076 37.0233 39.3145 37.0233 38.3697C37.0233 37.439 36.2618 36.6775 35.317 36.6916C34.3863 36.6916 33.6248 37.4531 33.6389 38.3979C33.653 39.3145 34.4145 40.076 35.3311 40.076Z" fill="#ED2024" stroke="#ED2024"/>
<path d="M35.3729 43.9961C34.9216 43.9961 34.4845 44.1794 34.1742 44.4897C33.864 44.7999 33.6807 45.237 33.6807 45.6883C33.6807 46.1396 33.864 46.5767 34.1742 46.887C34.4845 47.1972 34.9216 47.3805 35.3729 47.3805C35.8241 47.3805 36.2613 47.1972 36.5715 46.887C36.8818 46.5767 37.0651 46.1396 37.0651 45.6883C37.0651 45.237 36.8818 44.7999 36.5715 44.4897C36.2613 44.1794 35.8241 43.9961 35.3729 43.9961Z" fill="#ED2024" stroke="#ED2024"/>
<path d="M42.5652 47.8321C41.7473 47.3667 40.7178 47.6487 40.2525 48.4666C39.7871 49.2845 40.0692 50.314 40.8871 50.7793C41.155 50.9344 41.437 51.005 41.7191 51.005C42.3113 51.005 42.8754 50.6947 43.1856 50.1447C43.6651 49.3268 43.3831 48.2974 42.5652 47.8321Z" fill="#ED2024" stroke="#ED2024"/>
<path d="M49.2776 51.724C48.9673 51.4138 48.5302 51.2305 48.0789 51.2305C47.6277 51.2305 47.1905 51.4138 46.8803 51.724C46.57 52.0343 46.3867 52.4714 46.3867 52.9227C46.3867 53.3739 46.57 53.8111 46.8803 54.1213C47.1905 54.4316 47.6277 54.6149 48.0789 54.6149C48.5161 54.6149 48.9673 54.4316 49.2776 54.1213C49.5878 53.8111 49.7711 53.3739 49.7711 52.9227C49.7711 52.4714 49.5878 52.0484 49.2776 51.724Z" fill="#ED2024" stroke="#ED2024"/>
<path d="M28.2096 47.9166C27.4058 48.3961 27.1379 49.4255 27.6032 50.2293C27.9135 50.7652 28.4917 51.0613 29.0698 51.0613C29.366 51.0613 29.648 50.9908 29.9159 50.8357C30.7197 50.3562 30.9877 49.3268 30.5223 48.523C30.057 47.7192 29.0275 47.4372 28.2096 47.9166Z" fill="#ED2024" stroke="#ED2024"/>
<path d="M22.7518 51.3716C22.3146 51.3716 21.8634 51.5549 21.5531 51.8651C21.2429 52.1754 21.0596 52.6125 21.0596 53.0638C21.0596 53.515 21.2429 53.9522 21.5531 54.2624C21.8634 54.5727 22.3005 54.756 22.7518 54.756C23.203 54.756 23.6402 54.5727 23.9504 54.2624C24.2607 53.9522 24.444 53.515 24.444 53.0638C24.444 52.6125 24.2607 52.1754 23.9504 51.8651C23.6402 51.5549 23.203 51.3716 22.7518 51.3716Z" fill="#ED2024" stroke="#ED2024"/>
<path d="M11.174 53.7126H11.2022C12.7816 53.6985 14.2764 53.078 15.3904 51.9499C16.5044 50.8218 17.1108 49.327 17.0967 47.7476C17.0826 44.4901 14.4174 41.853 11.174 41.853H11.1458C9.56636 41.8671 8.07157 42.4876 6.95753 43.6157C5.84349 44.7439 5.23712 46.2387 5.25122 47.8181C5.26532 51.0756 7.91645 53.7126 11.174 53.7126ZM11.174 45.2939C12.5418 45.2939 13.6559 46.4079 13.67 47.7758C13.67 48.4386 13.4161 49.0731 12.9508 49.5385C12.4854 50.0039 11.8508 50.2718 11.1881 50.2718H11.174C9.80609 50.2718 8.69205 49.1577 8.67795 47.7899C8.67795 46.422 9.77789 45.308 11.174 45.2939Z" fill="#ED2024" stroke="#ED2024"/>
<path d="M19.0855 59.4234C17.3087 56.5044 14.6011 54.9673 11.2731 54.9673C11.259 54.9673 11.2308 54.9673 11.2167 54.9673C7.86048 54.9814 5.15293 56.5608 3.39021 59.5081C2.12105 61.6374 1.31725 64.5142 1.00701 68.0537C0.922402 68.9844 1.61339 69.8024 2.54411 69.887C2.60051 69.887 2.64282 69.887 2.68512 69.887C3.55943 69.887 4.29273 69.2242 4.36324 68.3358C4.94141 61.722 7.24 58.3658 11.2167 58.3376C11.2308 58.3376 11.2449 58.3376 11.259 58.3376C15.2075 58.3376 17.5343 61.6797 18.183 68.2653C18.2676 69.196 19.0996 69.8729 20.0303 69.7882C20.961 69.7036 21.6379 68.8716 21.5533 67.9409C21.2149 64.4014 20.3829 61.5387 19.0855 59.4234Z" fill="#ED2024" stroke="#ED2024"/>
</svg>
