<svg width="54" height="74" viewBox="0 0 54 74" fill="none" xmlns="http://www.w3.org/2000/svg">
<path d="M42.6242 46.5425C42.6392 46.485 42.6567 46.43 42.6592 46.37C42.66 46.3575 42.6667 46.3467 42.6667 46.3333C42.6667 35.125 33.7692 25.9608 22.6667 25.5208V23.8333C22.6667 23.3725 22.2933 23 21.8333 23C21.3733 23 21 23.3725 21 23.8333V25.5208C9.8975 25.9608 1 35.125 1 46.3333C1 46.3467 1.00667 46.3575 1.0075 46.3708C1.01 46.43 1.02667 46.485 1.0425 46.5433C1.05583 46.5925 1.06333 46.6417 1.08417 46.6867C1.105 46.7308 1.1375 46.7675 1.16583 46.8075C1.20083 46.8567 1.23333 46.9058 1.27833 46.9467C1.2875 46.955 1.29167 46.9675 1.30167 46.9758C1.33167 47.0008 1.36833 47.0092 1.4 47.0292C1.44917 47.06 1.49583 47.0908 1.55167 47.1108C1.61 47.1325 1.66917 47.1392 1.72917 47.1467C1.765 47.15 1.79667 47.1667 1.83333 47.1667C1.84583 47.1667 1.85583 47.16 1.86833 47.16C1.93167 47.1575 1.99083 47.14 2.05167 47.1233C2.09667 47.1108 2.1425 47.1042 2.18333 47.0842C2.23083 47.0625 2.27 47.0275 2.31333 46.9967C2.35917 46.9633 2.40583 46.9325 2.44417 46.8908C2.45333 46.8808 2.46583 46.8767 2.475 46.8658C3.65 45.4475 5.19833 44.6667 6.83333 44.6667C8.46833 44.6667 10.0167 45.4475 11.1917 46.8658C11.2075 46.885 11.2317 46.8925 11.2492 46.91C11.2692 46.93 11.2792 46.9567 11.3017 46.975C11.335 47.0025 11.375 47.0125 11.41 47.0342C11.4525 47.06 11.4917 47.0858 11.5367 47.1025C11.605 47.1292 11.6733 47.14 11.7442 47.1475C11.775 47.1508 11.8033 47.1667 11.8333 47.1667C11.8467 47.1667 11.8592 47.1608 11.8717 47.16C11.9142 47.1583 11.9533 47.1475 11.995 47.1392C12.0525 47.1275 12.1075 47.1142 12.1617 47.09C12.2033 47.0717 12.2408 47.0483 12.2792 47.0225C12.3067 47.005 12.3375 46.9958 12.3633 46.9742C12.3833 46.9575 12.3925 46.9342 12.4108 46.9158C12.43 46.8967 12.4558 46.8867 12.4733 46.865C13.65 45.4475 15.1983 44.6667 16.8333 44.6667C18.3833 44.6667 19.85 45.375 21 46.655V68.8333C21 70.2117 19.8783 71.3333 18.5 71.3333C17.1217 71.3333 16 70.2117 16 68.8333C16 68.3725 15.6267 68 15.1667 68C14.7067 68 14.3333 68.3725 14.3333 68.8333C14.3333 71.1308 16.2025 73 18.5 73C20.7975 73 22.6667 71.1308 22.6667 68.8333V46.655C23.8167 45.375 25.2833 44.6667 26.8333 44.6667C28.4683 44.6667 30.0167 45.4475 31.1917 46.8658C31.2075 46.885 31.2317 46.8925 31.2492 46.91C31.2692 46.93 31.2792 46.9567 31.3017 46.975C31.335 47.0025 31.375 47.0117 31.41 47.0333C31.4525 47.0592 31.4917 47.085 31.5375 47.1025C31.605 47.1283 31.6733 47.14 31.745 47.1475C31.775 47.1508 31.8033 47.1667 31.8333 47.1667C31.8467 47.1667 31.8592 47.1608 31.8717 47.16C31.9142 47.1583 31.9542 47.1475 31.9958 47.1383C32.0525 47.1267 32.1075 47.1133 32.1617 47.09C32.2042 47.0717 32.2417 47.0475 32.28 47.0225C32.3075 47.005 32.3383 46.9958 32.3642 46.975C32.3842 46.9583 32.3933 46.935 32.4108 46.9167C32.43 46.8975 32.4558 46.8875 32.4742 46.8658C33.65 45.4475 35.1983 44.6667 36.8333 44.6667C38.4683 44.6667 40.0167 45.4475 41.1917 46.8658C41.2 46.8758 41.2117 46.8783 41.2208 46.8883C41.2792 46.9525 41.3492 47.0008 41.425 47.045C41.4508 47.06 41.4708 47.0825 41.4983 47.0942C41.6008 47.1392 41.7133 47.1667 41.8333 47.1667C41.9358 47.1667 42.0375 47.1442 42.1342 47.1058C42.1717 47.0908 42.2025 47.0667 42.2375 47.0467C42.28 47.0225 42.3258 47.0067 42.3642 46.9742C42.3742 46.9658 42.3783 46.9542 42.3875 46.945C42.4325 46.9042 42.4642 46.8558 42.5 46.8058C42.5283 46.7658 42.5608 46.7283 42.5817 46.685C42.6033 46.6408 42.6117 46.5917 42.6242 46.5425ZM36.8333 43C34.985 43 33.24 43.7458 31.8333 45.1117C30.4267 43.7458 28.6817 43 26.8333 43C24.985 43 23.24 43.7458 21.8333 45.1117C20.4267 43.7458 18.6817 43 16.8333 43C14.985 43 13.24 43.7458 11.8333 45.1117C10.4267 43.7458 8.68167 43 6.83333 43C5.375 43 3.985 43.4717 2.77083 44.3375C3.7725 34.7033 11.9392 27.1667 21.8333 27.1667C31.7275 27.1667 39.8942 34.7033 40.8958 44.3375C39.6817 43.4717 38.2917 43 36.8333 43Z" fill="#ED2024" stroke="#ED2024" stroke-width="2"/>
<path d="M52.1323 19.834C52.1443 19.788 52.1583 19.744 52.1603 19.696C52.161 19.686 52.1663 19.6773 52.1663 19.6667C52.1663 10.7 45.0483 3.36867 36.1663 3.01667V1.66667C36.1663 1.298 35.8677 1 35.4997 1C35.1317 1 34.833 1.298 34.833 1.66667V3.01667C25.951 3.36867 18.833 10.7 18.833 19.6667C18.833 19.6773 18.8383 19.686 18.839 19.6967C18.841 19.744 18.8543 19.788 18.867 19.8347C18.8777 19.874 18.8837 19.9133 18.9003 19.9493C18.917 19.9847 18.943 20.014 18.9657 20.046C18.9937 20.0853 19.0197 20.1247 19.0557 20.1573C19.063 20.164 19.0663 20.174 19.0743 20.1807C19.0983 20.2007 19.1277 20.2073 19.153 20.2233C19.1923 20.248 19.2297 20.2727 19.2743 20.2887C19.321 20.306 19.3683 20.3113 19.4163 20.3173C19.445 20.32 19.4703 20.3333 19.4997 20.3333C19.5097 20.3333 19.5177 20.328 19.5277 20.328C19.5783 20.326 19.6257 20.312 19.6743 20.2987C19.7103 20.2887 19.747 20.2833 19.7797 20.2673C19.8177 20.25 19.849 20.222 19.8837 20.1973C19.9203 20.1707 19.9577 20.146 19.9883 20.1127C19.9957 20.1047 20.0057 20.1013 20.013 20.0927C20.953 18.958 22.1917 18.3333 23.4997 18.3333C24.8077 18.3333 26.0463 18.958 26.9863 20.0927C26.999 20.108 27.0183 20.114 27.0323 20.128C27.0483 20.144 27.0563 20.1653 27.0743 20.18C27.101 20.202 27.133 20.21 27.161 20.2273C27.195 20.248 27.2263 20.2687 27.2623 20.282C27.317 20.3033 27.3717 20.312 27.4283 20.318C27.453 20.3207 27.4757 20.3333 27.4997 20.3333C27.5103 20.3333 27.5203 20.3287 27.5303 20.328C27.5643 20.3267 27.5957 20.318 27.629 20.3113C27.675 20.302 27.719 20.2913 27.7623 20.272C27.7957 20.2573 27.8257 20.2387 27.8563 20.218C27.8783 20.204 27.903 20.1967 27.9237 20.1793C27.9397 20.166 27.947 20.1473 27.9617 20.1327C27.977 20.1173 27.9977 20.1093 28.0117 20.092C28.953 18.958 30.1917 18.3333 31.4997 18.3333C32.7397 18.3333 33.913 18.9 34.833 19.924L34.9904 31.7738C34.9904 32.8764 36.9357 32 35.833 32C34.7303 32 34.833 31.6027 34.833 30.5C35.201 30.5 34.833 30.1313 34.833 30.5C34.833 30.1313 34.465 30.5 34.833 30.5C35.333 32 34.3283 32.5 36.1663 32.5C36.1663 34.338 38.0043 32.5 36.1663 32.5V19.924C37.0863 18.9 38.2597 18.3333 39.4997 18.3333C40.8077 18.3333 42.0463 18.958 42.9863 20.0927C42.999 20.108 43.0183 20.114 43.0323 20.128C43.0483 20.144 43.0563 20.1653 43.0743 20.18C43.101 20.202 43.133 20.2093 43.161 20.2267C43.195 20.2473 43.2263 20.268 43.263 20.282C43.317 20.3027 43.3717 20.312 43.429 20.318C43.453 20.3207 43.4757 20.3333 43.4997 20.3333C43.5103 20.3333 43.5203 20.3287 43.5303 20.328C43.5643 20.3267 43.5963 20.318 43.6297 20.3107C43.675 20.3013 43.719 20.2907 43.7623 20.272C43.7963 20.2573 43.8263 20.238 43.857 20.218C43.879 20.204 43.9037 20.1967 43.9243 20.18C43.9403 20.1667 43.9477 20.148 43.9617 20.1333C43.977 20.118 43.9977 20.11 44.0123 20.0927C44.953 18.958 46.1917 18.3333 47.4997 18.3333C48.8077 18.3333 50.0463 18.958 50.9863 20.0927C50.993 20.1007 51.0023 20.1027 51.0097 20.1107C51.0563 20.162 51.1123 20.2007 51.173 20.236C51.1937 20.248 51.2097 20.266 51.2317 20.2753C51.3137 20.3113 51.4037 20.3333 51.4997 20.3333C51.5817 20.3333 51.663 20.3153 51.7403 20.2847C51.7703 20.2727 51.795 20.2533 51.823 20.2373C51.857 20.218 51.8937 20.2053 51.9243 20.1793C51.9323 20.1727 51.9357 20.1633 51.943 20.156C51.979 20.1233 52.0043 20.0847 52.033 20.0447C52.0557 20.0127 52.0817 19.9827 52.0983 19.948C52.1157 19.9127 52.1223 19.8733 52.1323 19.834ZM47.4997 17C46.021 17 44.625 17.5967 43.4997 18.6893C42.3743 17.5967 40.9783 17 39.4997 17C38.021 17 36.625 17.5967 35.4997 18.6893C34.3743 17.5967 32.9783 17 31.4997 17C30.021 17 28.625 17.5967 27.4997 18.6893C26.3743 17.5967 24.9783 17 23.4997 17C22.333 17 21.221 17.3773 20.2497 18.07C21.051 10.3627 27.5843 4.33333 35.4997 4.33333C43.415 4.33333 49.9483 10.3627 50.7497 18.07C49.7783 17.3773 48.6663 17 47.4997 17Z" fill="#ED2024"/>
<path d="M34.833 30.5C34.833 31.6027 34.7303 32 35.833 32C36.9357 32 34.9904 32.8764 34.9904 31.7738L34.833 19.924C33.913 18.9 32.7397 18.3333 31.4997 18.3333C30.1917 18.3333 28.953 18.958 28.0117 20.092C27.9977 20.1093 27.977 20.1173 27.9617 20.1327C27.947 20.1473 27.9397 20.166 27.9237 20.1793C27.903 20.1967 27.8783 20.204 27.8563 20.218C27.8257 20.2387 27.7957 20.2573 27.7623 20.272C27.719 20.2913 27.675 20.302 27.629 20.3113C27.5957 20.318 27.5643 20.3267 27.5303 20.328C27.5203 20.3287 27.5103 20.3333 27.4997 20.3333C27.4757 20.3333 27.453 20.3207 27.4283 20.318C27.3717 20.312 27.317 20.3033 27.2623 20.282C27.2263 20.2687 27.195 20.248 27.161 20.2273C27.133 20.21 27.101 20.202 27.0743 20.18C27.0563 20.1653 27.0483 20.144 27.0323 20.128C27.0183 20.114 26.999 20.108 26.9863 20.0927C26.0463 18.958 24.8077 18.3333 23.4997 18.3333C22.1917 18.3333 20.953 18.958 20.013 20.0927C20.0057 20.1013 19.9957 20.1047 19.9883 20.1127C19.9577 20.146 19.9203 20.1707 19.8837 20.1973C19.849 20.222 19.8177 20.25 19.7797 20.2673C19.747 20.2833 19.7103 20.2887 19.6743 20.2987C19.6257 20.312 19.5783 20.326 19.5277 20.328C19.5177 20.328 19.5097 20.3333 19.4997 20.3333C19.4703 20.3333 19.445 20.32 19.4163 20.3173C19.3683 20.3113 19.321 20.306 19.2743 20.2887C19.2297 20.2727 19.1923 20.248 19.153 20.2233C19.1277 20.2073 19.0983 20.2007 19.0743 20.1807C19.0663 20.174 19.063 20.164 19.0557 20.1573C19.0197 20.1247 18.9937 20.0853 18.9657 20.046C18.943 20.014 18.917 19.9847 18.9003 19.9493C18.8837 19.9133 18.8777 19.874 18.867 19.8347C18.8543 19.788 18.841 19.744 18.839 19.6967C18.8383 19.686 18.833 19.6773 18.833 19.6667C18.833 10.7 25.951 3.36867 34.833 3.01667V1.66667C34.833 1.298 35.1317 1 35.4997 1C35.8677 1 36.1663 1.298 36.1663 1.66667V3.01667C45.0483 3.36867 52.1663 10.7 52.1663 19.6667C52.1663 19.6773 52.161 19.686 52.1603 19.696C52.1583 19.744 52.1443 19.788 52.1323 19.834C52.1223 19.8733 52.1157 19.9127 52.0983 19.948C52.0817 19.9827 52.0557 20.0127 52.033 20.0447C52.0043 20.0847 51.979 20.1233 51.943 20.156C51.9357 20.1633 51.9323 20.1727 51.9243 20.1793C51.8937 20.2053 51.857 20.218 51.823 20.2373C51.795 20.2533 51.7703 20.2727 51.7403 20.2847C51.663 20.3153 51.5817 20.3333 51.4997 20.3333C51.4037 20.3333 51.3137 20.3113 51.2317 20.2753C51.2097 20.266 51.1937 20.248 51.173 20.236C51.1123 20.2007 51.0563 20.162 51.0097 20.1107C51.0023 20.1027 50.993 20.1007 50.9863 20.0927C50.0463 18.958 48.8077 18.3333 47.4997 18.3333C46.1917 18.3333 44.953 18.958 44.0123 20.0927C43.9977 20.11 43.977 20.118 43.9617 20.1333C43.9477 20.148 43.9403 20.1667 43.9243 20.18C43.9037 20.1967 43.879 20.204 43.857 20.218C43.8263 20.238 43.7963 20.2573 43.7623 20.272C43.719 20.2907 43.675 20.3013 43.6297 20.3107C43.5963 20.318 43.5643 20.3267 43.5303 20.328C43.5203 20.3287 43.5103 20.3333 43.4997 20.3333C43.4757 20.3333 43.453 20.3207 43.429 20.318C43.3717 20.312 43.317 20.3027 43.263 20.282C43.2263 20.268 43.195 20.2473 43.161 20.2267C43.133 20.2093 43.101 20.202 43.0743 20.18C43.0563 20.1653 43.0483 20.144 43.0323 20.128C43.0183 20.114 42.999 20.108 42.9863 20.0927C42.0463 18.958 40.8077 18.3333 39.4997 18.3333C38.2597 18.3333 37.0863 18.9 36.1663 19.924V32.5M34.833 30.5C34.833 30.1313 35.201 30.5 34.833 30.5ZM34.833 30.5C34.465 30.5 34.833 30.1313 34.833 30.5ZM34.833 30.5C35.333 32 34.3283 32.5 36.1663 32.5M36.1663 32.5C38.0043 32.5 36.1663 34.338 36.1663 32.5ZM47.4997 17C46.021 17 44.625 17.5967 43.4997 18.6893C42.3743 17.5967 40.9783 17 39.4997 17C38.021 17 36.625 17.5967 35.4997 18.6893C34.3743 17.5967 32.9783 17 31.4997 17C30.021 17 28.625 17.5967 27.4997 18.6893C26.3743 17.5967 24.9783 17 23.4997 17C22.333 17 21.221 17.3773 20.2497 18.07C21.051 10.3627 27.5843 4.33333 35.4997 4.33333C43.415 4.33333 49.9483 10.3627 50.7497 18.07C49.7783 17.3773 48.6663 17 47.4997 17Z" stroke="#ED2024" stroke-width="2"/>
</svg>
