<svg width="67" height="67" viewBox="0 0 67 67" fill="none" xmlns="http://www.w3.org/2000/svg">
<path d="M12.3008 18.8438H14.918V21.4609C14.918 22.545 15.7968 23.4238 16.8809 23.4238C17.9649 23.4238 18.8438 22.545 18.8438 21.4609V18.8438H21.4609C22.545 18.8438 23.4238 17.9649 23.4238 16.8809C23.4238 15.7968 22.545 14.918 21.4609 14.918H18.8438V12.3008C18.8438 11.2167 17.9649 10.3379 16.8809 10.3379C15.7968 10.3379 14.918 11.2167 14.918 12.3008V14.918H12.3008C11.2167 14.918 10.3379 15.7968 10.3379 16.8809C10.3379 17.9649 11.2167 18.8438 12.3008 18.8438Z" fill="#ED2024"/>
<path d="M42.791 18.8438H50.6426C51.7266 18.8438 52.6055 17.9649 52.6055 16.8809C52.6055 15.7968 51.7266 14.918 50.6426 14.918H42.791C41.707 14.918 40.8281 15.7968 40.8281 16.8809C40.8281 17.9649 41.707 18.8438 42.791 18.8438Z" fill="#ED2024"/>
<path d="M51.2969 48.0254H42.1367C41.0527 48.0254 40.1738 48.9042 40.1738 49.9883C40.1738 51.0723 41.0527 51.9512 42.1367 51.9512H51.2969C52.3809 51.9512 53.2598 51.0723 53.2598 49.9883C53.2598 48.9042 52.3809 48.0254 51.2969 48.0254Z" fill="#ED2024"/>
<path d="M51.2969 41.4824H42.1367C41.0527 41.4824 40.1738 42.3613 40.1738 43.4453C40.1738 44.5294 41.0527 45.4082 42.1367 45.4082H51.2969C52.3809 45.4082 53.2598 44.5294 53.2598 43.4453C53.2598 42.3613 52.3809 41.4824 51.2969 41.4824Z" fill="#ED2024"/>
<path d="M21.5403 42.0575C20.7739 41.2909 19.531 41.2909 18.7644 42.0575L16.8809 43.9409L14.9973 42.0574C14.2309 41.2908 12.988 41.2908 12.2214 42.0574C11.4548 42.8239 11.4548 44.0667 12.2214 44.8333L14.105 46.7169L12.2214 48.6005C11.4548 49.367 11.4548 50.6098 12.2214 51.3764C12.6047 51.7597 13.1071 51.9512 13.6094 51.9512C14.1118 51.9512 14.6142 51.7597 14.9973 51.3762L16.8809 49.4928L18.7645 51.3764C19.1477 51.7597 19.65 51.9512 20.1524 51.9512C20.6548 51.9512 21.1571 51.7597 21.5403 51.3762C22.3069 50.6097 22.3069 49.3669 21.5403 48.6003L19.6568 46.7169L21.5404 44.8333C22.307 44.0668 22.307 42.8239 21.5403 42.0575Z" fill="#ED2024"/>
<path d="M63.5977 35.485V5.88867C63.5977 2.64166 60.956 0 57.709 0H5.88867C2.64166 0 0 2.64166 0 5.88867V57.709C0 60.956 2.64166 63.5977 5.88867 63.5977H35.4849C38.7027 65.7458 42.5658 67 46.7168 67C57.9011 67 67 57.901 67 46.7168C67 42.5659 65.7458 38.7028 63.5977 35.485ZM59.6719 5.88867V31.1223C56.1556 28.1961 51.6383 26.4336 46.7168 26.4336C41.7953 26.4336 37.278 28.1961 33.7617 31.1223V3.92578H57.709C58.7913 3.92578 59.6719 4.80633 59.6719 5.88867ZM5.88867 3.92578H29.8359V29.8359H3.92578V5.88867C3.92578 4.80633 4.80633 3.92578 5.88867 3.92578ZM3.92578 57.709V33.7617H29.8359V35.485C27.6877 38.7028 26.4336 42.5659 26.4336 46.7168C26.4336 51.6383 28.1961 56.1556 31.1223 59.6719H5.88867C4.80633 59.6719 3.92578 58.7913 3.92578 57.709V57.709ZM46.7168 63.0742C37.6973 63.0742 30.3594 55.7363 30.3594 46.7168C30.3594 37.6973 37.6973 30.3594 46.7168 30.3594C55.7363 30.3594 63.0742 37.6973 63.0742 46.7168C63.0742 55.7363 55.7363 63.0742 46.7168 63.0742Z" fill="#ED2024"/>
</svg>
