<svg width="61" height="62" viewBox="0 0 61 62" fill="none" xmlns="http://www.w3.org/2000/svg">
<path d="M30.668 1.33203C14.3082 1.33203 1 14.6402 1 31C1 47.3598 14.3082 60.668 30.668 60.668C47.0277 60.668 60.3359 47.3598 60.3359 31C60.3359 14.6402 47.0277 1.33203 30.668 1.33203ZM55.2742 32.2594H57.7809C57.4781 38.7984 54.8625 44.732 50.7211 49.273L48.9531 47.5051C48.4566 47.0086 47.6574 47.0086 47.173 47.5051C46.6766 48.0016 46.6766 48.8008 47.173 49.2852L48.941 51.0531C44.4 55.1945 38.4664 57.8102 31.9273 58.1129V55.6063C31.9273 54.9039 31.3582 54.3469 30.668 54.3469C29.9656 54.3469 29.4086 54.916 29.4086 55.6063V58.1129C22.8695 57.8102 16.9359 55.1945 12.3949 51.0531L14.1629 49.2852C14.6594 48.7887 14.6594 47.9895 14.1629 47.5051C13.6664 47.0086 12.8672 47.0086 12.3828 47.5051L10.6148 49.273C6.48555 44.732 3.85781 38.7984 3.55508 32.2715H6.06172C6.76406 32.2715 7.32109 31.7023 7.32109 31.0121C7.32109 30.3219 6.75195 29.7527 6.06172 29.7527H3.55508C3.85781 23.2137 6.47344 17.2801 10.6148 12.7391L12.3828 14.507C12.8793 15.0035 13.6785 15.0035 14.1629 14.507C14.6594 14.0105 14.6594 13.2113 14.1629 12.727L12.3949 10.959C16.9359 6.81758 22.8695 4.20195 29.4086 3.89922V6.40586C29.4086 7.1082 29.9777 7.66523 30.668 7.66523C31.3703 7.66523 31.9273 7.09609 31.9273 6.40586V3.88711C38.4664 4.18984 44.4 6.80547 48.941 10.9469L47.173 12.7148C46.6766 13.2113 46.6766 14.0105 47.173 14.4949C47.6695 14.9914 48.4688 14.9914 48.9531 14.4949L50.7211 12.727C54.8625 17.268 57.4781 23.2016 57.7809 29.7406H55.2742C54.5719 29.7406 54.0148 30.3098 54.0148 31C54.0148 31.6902 54.5719 32.2594 55.2742 32.2594Z" fill="#ED2024" stroke="#ED2024" stroke-width="1.2"/>
<path d="M43.7824 29.7404H31.9273V12.2545C31.9273 11.5521 31.3582 10.9951 30.668 10.9951C29.9656 10.9951 29.4086 11.5643 29.4086 12.2545V29.7404H24.2379C23.5355 29.7404 22.9785 30.3096 22.9785 30.9998C22.9785 31.69 23.5477 32.2592 24.2379 32.2592H29.4086V37.0303C29.4086 37.7326 29.9777 38.2896 30.668 38.2896C31.3703 38.2896 31.9273 37.7205 31.9273 37.0303V32.2592H43.7824C44.4848 32.2592 45.0418 31.69 45.0418 30.9998C45.0418 30.3096 44.4727 29.7404 43.7824 29.7404V29.7404Z" fill="#ED2024" stroke="#ED2024" stroke-width="1.2"/>
</svg>
