<svg width="62" height="70" viewBox="0 0 62 70" fill="none" xmlns="http://www.w3.org/2000/svg">
<path d="M50.4817 38.5861L54.5086 34.5592C58.1953 30.8725 58.2989 24.9631 54.8333 21.1507L39.095 3.70194C36.9563 1.34924 33.9061 0 30.7266 0C27.547 0 24.4969 1.34924 22.3527 3.70781L6.62519 21.1447C3.15009 24.9674 3.25729 30.872 6.94448 34.5591L10.9714 38.586C4.26416 41.5678 0 48.1846 0 55.4444V63.6381C0 64.7694 0.917154 65.6866 2.04844 65.6866H12.2906V67.8716C12.2906 69.0028 13.2078 69.92 14.3391 69.92H47.1141C48.2453 69.92 49.1625 69.0028 49.1625 67.8716V65.6866H59.4047C60.536 65.6866 61.4531 64.7694 61.4531 63.6381V55.4444C61.4531 48.191 57.195 41.5704 50.4817 38.5861ZM9.66207 23.8946L25.3896 6.45777C26.7535 4.95735 28.6987 4.09687 30.7266 4.09687C32.7544 4.09687 34.6996 4.95736 36.0582 6.45189L51.7965 23.9006C51.9642 24.0851 52.1178 24.2797 52.2582 24.4821C45.6814 21.7961 37.9051 20.6209 30.7266 20.6209C23.6297 20.6209 15.8186 21.7771 9.19585 24.4817C9.33746 24.2775 9.4926 24.0812 9.66207 23.8946ZM40.9687 25.5668V26.7662C40.9687 32.4138 36.3741 37.0084 30.7266 37.0084C25.079 37.0084 20.4844 32.4138 20.4844 26.7662V25.5668C23.7418 25.0114 27.1987 24.7178 30.7266 24.7178C34.2544 24.7178 37.7113 25.0114 40.9687 25.5668ZM45.0656 65.8231H16.3875V51.3475C16.3875 50.218 17.3064 49.2991 18.4359 49.2991H43.0172C44.1467 49.2991 45.0656 50.218 45.0656 51.3475V65.8231ZM57.3562 61.5897H49.1625V51.3475C49.1625 47.959 46.4057 45.2022 43.0172 45.2022H18.4359C15.0474 45.2022 12.2906 47.959 12.2906 51.3475V61.5897H4.09687V55.4444C4.09687 48.7181 8.66789 42.971 15.2125 41.4686C15.9388 41.3018 16.5171 40.7541 16.723 40.0379C16.9288 39.3218 16.7296 38.5505 16.2027 38.0236L9.84138 31.6623C9.17632 30.9972 8.69835 30.1949 8.43383 29.3193C10.7746 28.1447 13.4636 27.1731 16.3875 26.4304V26.7662C16.3875 34.6728 22.82 41.1053 30.7266 41.1053C38.6331 41.1053 45.0656 34.6728 45.0656 26.7662V26.4303C47.9897 27.1729 50.6785 28.1446 53.0193 29.3191C52.7548 30.1948 52.2768 30.9971 51.6117 31.6622L45.2504 38.0235C44.7235 38.5504 44.5243 39.3218 44.7301 40.0378C44.9359 40.7539 45.5144 41.3017 46.2406 41.4684C52.7852 42.971 57.3562 48.7181 57.3562 55.4444V61.5897Z" fill="#ED2024"/>
<path d="M33.8232 58.396H25.6295C24.4982 58.396 23.5811 59.3131 23.5811 60.4444C23.5811 61.5757 24.4982 62.4929 25.6295 62.4929H33.8232C34.9545 62.4929 35.8717 61.5757 35.8717 60.4444C35.8717 59.3131 34.9545 58.396 33.8232 58.396Z" fill="#ED2024"/>
</svg>
