<svg width="87" height="77" viewBox="0 0 87 77" fill="none" xmlns="http://www.w3.org/2000/svg">
<path d="M20.0999 25.9401C16.9691 25.9538 14.3944 25.2689 11.0414 23.8148L13.4503 23.1534L17.1107 22.1484L17.1107 22.1484L33.0073 17.7842L35.8303 17.0092L33.5523 15.1705L20.6649 4.76841L20.6645 4.76806L17.626 2.31746C19.215 1.91077 21.2991 1.51419 23.3882 1.5H23.3882H23.3884H23.3886H23.3887H23.3889H23.3891H23.3893H23.3894H23.3896H23.3898H23.39H23.3901H23.3903H23.3905H23.3906H23.3908H23.391H23.3912H23.3913H23.3915H23.3917H23.3918H23.392H23.3922H23.3924H23.3925H23.3927H23.3929H23.393H23.3932H23.3934H23.3936H23.3937H23.3939H23.3941H23.3942H23.3944H23.3946H23.3948H23.3949H23.3951H23.3953H23.3954H23.3956H23.3958H23.3959H23.3961H23.3963H23.3965H23.3966H23.3968H23.397H23.3971H23.3973H23.3975H23.3977H23.3978H23.398H23.3982H23.3983H23.3985H23.3987H23.3988H23.399H23.3992H23.3994H23.3995H23.3997H23.3999H23.4H23.4002H23.4004H23.4006H23.4007H23.4009H23.4011H23.4012H23.4014H23.4016H23.4017H23.4019H23.4021H23.4023H23.4024H23.4026H23.4028H23.4029H23.4031H23.4033H23.4034H23.4036H23.4038H23.404H23.4041H23.4043H23.4045H23.4046H23.4048H23.405H23.4051H23.4053H23.4055H23.4057H23.4058H23.406H23.4062H23.4063H23.4065H23.4067H23.4068H23.407H23.4072H23.4073H23.4075H23.4077H23.4079H23.408H23.4082H23.4084H23.4085H23.4087H23.4089H23.409H23.4092H23.4094H23.4096H23.4097H23.4099H23.4101H23.4102H23.4104H23.4106H23.4107H23.4109H23.4111H23.4112H23.4114H23.4116H23.4118H23.4119H23.4121H23.4123H23.4124H23.4126H23.4128H23.4129H23.4131H23.4133H23.4135H23.4136H23.4138H23.414H23.4141H23.4143H23.4145H23.4146H23.4148H23.415H23.4151H23.4153H23.4155H23.4157H23.4158H23.416H23.4162H23.4163H23.4165H23.4167H23.4168H23.417H23.4172H23.4174H23.4175H23.4177H23.4179H23.418H23.4182H23.4184H23.4185H23.4187H23.4189H23.4191H23.4192H23.4194H23.4196H23.4197H23.4199H23.4201H23.4202H23.4204H23.4206H23.4208H23.4209H23.4211H23.4213H23.4214H23.4216H23.4218H23.4219H23.4221H23.4223H23.4225H23.4226H23.4228H23.423H23.4231H23.4233H23.4235H23.4236H23.4238H23.424H23.4242H23.4243H23.4245H23.4247H23.4248H23.425H23.4252H23.4253H23.4255H23.4257H23.4259H23.426H23.4262H23.4264H23.4265H23.4267H23.4269H23.427H23.4272H23.4274H23.4276H23.4277H23.4279H23.4281H23.4282H23.4284H23.4286H23.4288H23.4289H23.4291H23.4293H23.4294H23.4296H23.4298H23.43H23.4301H23.4303H23.4305H23.4306H23.4308H23.431H23.4311H23.4313H23.4315H23.4317H23.4318H23.432H23.4322H23.4323H23.4325H23.4327H23.4329H23.433H23.4332H23.4334H23.4335H23.4337H23.4339H23.4341H23.4342H23.4344H23.4346H23.4348H23.4349H23.4351H23.4353H23.4354H23.4356H23.4358H23.436H23.4361H23.4363H23.4365H23.4366H23.4368H23.437H23.4372H23.4373H23.4375H23.4377H23.4379H23.438H23.4382H23.4384H23.4385H23.4387H23.4389H23.4391H23.4392H23.4394H23.4396H23.4398H23.4399H23.4401H23.4403H23.4404H23.4406H23.4408H23.441H23.4411H23.4413H23.4415H23.4417H23.4418H23.442H23.4422H23.4424H23.4425H23.4427H23.4429H23.443H23.4432H23.4434H23.4436H23.4437H23.4439H23.4441H23.4443H23.4444H23.4446H23.4448H23.445H23.4451H23.4453H23.4455H23.4457H23.4458H23.446H23.4462H23.4464H23.4465H23.4467H23.4469H23.4471H23.4472H23.4474H23.4476H23.4478H23.4479H23.4481H23.4483H23.4485H23.4486H23.4488H23.449H23.4492H23.4493H23.4495H23.4497H23.4499H23.45H23.4502H23.4504H23.4506H23.4507H23.4509H23.4511H23.4513H23.4514H23.4516H23.4518H23.452H23.4522H23.4523H23.4525H23.4527H23.4529H23.453H23.4532H23.4534H23.4536H23.4537H23.4539H23.4541H23.4543H23.4545H23.4546H23.4548H23.455H23.4552H23.4553H23.4555H23.4557H23.4559H23.4561H23.4562H23.4564H23.4566H23.4568H23.4569H23.4571H23.4573H23.4575H23.4577H23.4578H23.458H23.4582H23.4584H23.4586H23.4587H23.4589H23.4591H23.4593H23.4595H23.4596H23.4598H23.46H23.4602H23.4604H23.4605H23.4607H23.4609H23.4611H23.4612H23.4614H23.4616H23.4618H23.462H23.4622H23.4623H23.4625H23.4627H23.4629H23.4631H23.4632H23.4634H23.4636H23.4638H23.464H23.4641H23.4643H23.4645H23.4647H23.4649H23.465H23.4652H23.4654H23.4656H23.4658H23.466H23.4661H23.4663H23.4665H23.4667H23.4669H23.4671H23.4672H23.4674H23.4676H23.4678C25.0332 1.50938 27.5779 2.15784 30.6403 3.22576L30.6409 3.22595C37.5932 5.64727 46.1098 9.81986 48.7271 11.1021C49.0725 11.2714 49.3151 11.3902 49.4379 11.4481L50.0678 11.7451L50.7012 11.4556C52.8401 10.4778 60.4835 7.04192 67.9241 5.06474C74.274 3.45166 80.47 2.9482 84.791 4.98541C85.2531 5.20369 85.4003 5.42586 85.4517 5.54673C85.5045 5.67077 85.5369 5.87788 85.424 6.2107C85.1861 6.91182 84.3732 7.88866 82.9064 8.63938L78.7294 9.89597L78.7292 9.89604L41.4801 21.1084C30.0938 24.5332 24.1396 25.831 20.0999 25.9401ZM6.98652 18.9318C8.49711 19.0715 10.0799 19.5669 12.0167 20.6207L11.9718 20.6674L9.57885 23.1564C8.02596 22.435 6.29316 21.5684 4.27319 20.551C3.68982 20.2048 3.14772 19.7999 2.6552 19.3431C4.26862 18.9571 5.63836 18.807 6.98652 18.9318Z" stroke="#ED2024" stroke-width="3"/>
<circle cx="52" cy="45" r="31" fill="white"/>
<path d="M42.6208 40.5582L41.6121 40.2304C41.0847 40.0588 40.5169 40.3477 40.3454 40.8758C40.1738 41.4038 40.4628 41.971 40.9908 42.1425L41.9971 42.4695C41.8572 43.1248 41.7821 43.8037 41.7821 44.5001C41.7821 45.1964 41.8573 45.8755 41.9971 46.5307L40.9908 46.8576C40.4628 47.0292 40.1737 47.5963 40.3454 48.1243C40.4834 48.5491 40.8776 48.8193 41.3013 48.8193C41.4044 48.8193 41.509 48.8034 41.6121 48.7699L42.6208 48.4421C43.181 49.6988 43.9985 50.816 45.0086 51.7246L44.3839 52.5846C44.0575 53.0338 44.1571 53.6626 44.6062 53.9888C44.7846 54.1184 44.9913 54.1809 45.1963 54.1809C45.507 54.1809 45.8137 54.0372 46.0103 53.7664L46.6346 52.9071C47.7923 53.5797 49.0995 54.0222 50.4947 54.1663V55.2236C50.4947 55.7788 50.9447 56.2289 51.5 56.2289C52.0554 56.2289 52.5054 55.7788 52.5054 55.2236V54.1664C53.9006 54.0223 55.2078 53.5798 56.3655 52.9072L56.9897 53.7666C57.1864 54.0373 57.4929 54.181 57.8038 54.181C58.0086 54.181 58.2154 54.1186 58.3938 53.9889C58.8431 53.6626 58.9426 53.0339 58.6162 52.5847L57.9914 51.7247C59.0016 50.8162 59.8191 49.6989 60.3793 48.4423L61.3878 48.77C61.491 48.8035 61.5957 48.8195 61.6987 48.8195C62.1224 48.8195 62.5166 48.5494 62.6545 48.1246C62.8261 47.5966 62.5371 47.0293 62.0091 46.8577L61.003 46.5308C61.1429 45.8755 61.218 45.1966 61.218 44.5001C61.218 43.8036 61.1428 43.1247 61.003 42.4693L62.0091 42.1424C62.5371 41.9708 62.8262 41.4037 62.6545 40.8756C62.4831 40.3474 61.9154 40.0586 61.3878 40.2301L60.3793 40.5579C59.8191 39.3012 59.0016 38.184 57.9914 37.2754L58.6162 36.4154C58.9426 35.9663 58.843 35.3375 58.3938 35.0112C57.9451 34.6849 57.316 34.7843 56.9896 35.2337L56.3654 36.0931C55.2077 35.4204 53.9005 34.978 52.5052 34.8339V33.7768C52.5052 33.2216 52.0552 32.7715 51.4999 32.7715C50.9446 32.7715 50.4946 33.2216 50.4946 33.7768V34.834C49.0993 34.9781 47.7922 35.4206 46.6344 36.0932L46.0102 35.2338C45.6839 34.7847 45.0553 34.6852 44.606 35.0113C44.1567 35.3377 44.0572 35.9664 44.3836 36.4156L45.0084 37.2756C43.9985 38.1843 43.181 39.3015 42.6208 40.5582V40.5582ZM51.5002 36.7928C55.7501 36.7928 59.2076 40.2503 59.2076 44.5002C59.2076 48.7502 55.7501 52.2077 51.5002 52.2077C47.2502 52.2077 43.7927 48.7502 43.7927 44.5002C43.7927 40.2503 47.2502 36.7928 51.5002 36.7928Z" fill="#ED2024" stroke="#ED2024" stroke-width="1.4"/>
<path d="M73.7739 22.2261C67.8242 16.2765 59.914 13 51.5 13C43.086 13 35.1758 16.2765 29.2261 22.2261C23.2765 28.1758 20 36.086 20 44.5C20 52.914 23.2765 60.8242 29.2261 66.7739C35.1758 72.7235 43.086 76 51.5 76C56.8878 76 62.2054 74.6159 66.878 71.9975C67.3625 71.7261 67.535 71.1133 67.2637 70.629C66.9924 70.1448 66.3797 69.972 65.8951 70.2435C61.5222 72.694 56.5444 73.9894 51.5 73.9894C35.2394 73.9894 22.0106 60.7606 22.0106 44.5C22.0106 28.2394 35.2394 15.0106 51.5 15.0106C67.7606 15.0106 80.9894 28.2394 80.9894 44.5C80.9894 49.544 79.6933 54.5222 77.2414 58.8966C76.97 59.3809 77.1425 59.9936 77.6268 60.265C78.1108 60.5362 78.7238 60.3641 78.9952 59.8796C81.6152 55.2057 83 49.8874 83 44.5C83 36.086 79.7235 28.1758 73.7739 22.2261Z" fill="#ED2024" stroke="#ED2024" stroke-width="1.4"/>
<path d="M73.0629 60.7012C70.1064 60.7012 67.7012 63.1064 67.7012 66.0629C67.7012 69.0193 70.1064 71.4246 73.0629 71.4246C76.0193 71.4246 78.4246 69.0193 78.4246 66.0629C78.4246 63.1064 76.0193 60.7012 73.0629 60.7012ZM73.0629 69.4139C71.2151 69.4139 69.7118 67.9107 69.7118 66.0629C69.7118 64.2151 71.2151 62.7118 73.0629 62.7118C74.9107 62.7118 76.4139 64.2151 76.4139 66.0629C76.4139 67.9107 74.9107 69.4139 73.0629 69.4139Z" fill="#ED2024" stroke="#ED2024" stroke-width="1.4"/>
<path d="M36.2169 59.7838C40.4308 63.9975 45.9657 66.1044 51.5006 66.1044C57.0354 66.1044 62.5705 63.9975 66.7842 59.7838C75.2116 51.3562 75.2116 37.644 66.7842 29.2164C60.6927 23.1249 51.5771 21.231 43.5612 24.3909C43.4331 24.4414 43.3163 24.5181 43.2187 24.6156C42.8261 25.0082 42.8263 25.6446 43.2189 26.0371C43.5166 26.3347 43.9542 26.4066 44.32 26.2529C51.5858 23.3982 59.8428 25.1184 65.3623 30.638C73.0058 38.2815 73.0058 50.7183 65.3623 58.3618C61.5401 62.1841 56.5211 64.095 51.5004 64.0944C46.4809 64.094 41.4598 62.1831 37.6385 58.3618C32.1137 52.837 30.3962 44.5691 33.2627 37.2983C33.4665 36.7817 33.2127 36.1979 32.6961 35.9942C32.1794 35.7906 31.5956 36.0443 31.392 36.5608C28.232 44.577 30.1257 53.6926 36.2169 59.7838V59.7838Z" fill="#ED2024" stroke="#ED2024" stroke-width="1.4"/>
<path d="M36.9271 24.5654C35.4949 24.5654 34.1486 25.1232 33.136 26.1359C32.1232 27.1486 31.5654 28.495 31.5654 29.9271C31.5654 31.3592 32.1232 32.7057 33.1359 33.7184C34.1486 34.7311 35.495 35.2888 36.9271 35.2888C38.3592 35.2888 39.7057 34.7311 40.7185 33.7184C42.8089 31.6279 42.8089 28.2264 40.7184 26.1359C39.7058 25.1232 38.3594 24.5654 36.9271 24.5654V24.5654ZM39.2967 32.2967C38.6638 32.9297 37.8223 33.2783 36.9271 33.2783C36.032 33.2783 35.1906 32.9297 34.5575 32.2967C33.9246 31.6638 33.5761 30.8223 33.5761 29.9271C33.5761 29.032 33.9247 28.1905 34.5577 27.5575C35.1906 26.9246 36.032 26.5761 36.9271 26.5761C37.8223 26.5761 38.6638 26.9247 39.2967 27.5575C40.6032 28.8642 40.6032 30.9901 39.2967 32.2967Z" fill="#ED2024" stroke="#ED2024" stroke-width="1.4"/>
</svg>
