<svg width="40" height="40" viewBox="0 0 40 40" fill="none" xmlns="http://www.w3.org/2000/svg">
<circle cx="20" cy="20" r="20" fill="white"/>
<path fill-rule="evenodd" clip-rule="evenodd" d="M7.90239 13.159C6.86862 12.6739 6.03313 12.6121 5.04777 12.8053C4.71945 12.8697 4.37448 12.9624 4 13.0771C4.20922 13.3842 4.46491 13.6557 4.75718 13.8842C4.89218 13.9897 5.03498 14.086 5.18462 14.1724C5.60517 14.3809 5.99161 14.572 6.35233 14.7454C6.82003 14.9704 7.24449 15.1657 7.644 15.3309C8.72713 15.7789 9.62686 16.0054 10.7078 15.9999C12.1305 15.9631 14.1761 15.5174 17.9707 14.3943L31.8211 10.2924C32.9926 9.72345 33.4365 8.63588 32.4769 8.19014C30.8667 7.44316 28.6487 7.65151 26.5156 8.18498C23.9905 8.84488 21.4082 9.98793 20.6925 10.3098C20.6551 10.2925 20.5791 10.2558 20.4698 10.2031C19.616 9.79122 16.7326 8.40034 14.3781 7.59346C13.3572 7.24319 12.4377 7.00323 11.824 7H11.7944C11.1486 7.00414 10.5131 7.10759 9.99709 7.22466C9.30638 7.38137 8.8299 7.56249 8.8299 7.56249L14.8701 12.3585L8.35106 14.1195L8.80359 13.6564C8.56136 13.5051 8.33175 13.374 8.11166 13.2616C8.04095 13.2255 7.97123 13.1913 7.90239 13.159ZM7.1639 13.9148C6.93255 13.8252 6.72245 13.7668 6.5247 13.7317C6.71957 13.8264 6.90483 13.9154 7.08185 13.9988L7.1639 13.9148ZM9.35882 14.8677C9.79892 14.9705 10.225 15.0176 10.6921 15.016C11.9628 14.9812 13.887 14.5755 17.6827 13.4521L30.099 9.77465L31.4457 9.37601C31.617 9.2854 31.7498 9.18537 31.8444 9.09199C31.8707 9.06604 31.8929 9.04179 31.9115 9.01955C30.6427 8.49997 28.7919 8.63151 26.7672 9.13731C24.3319 9.77438 21.8186 10.8852 21.1083 11.2047L20.686 11.3946L20.2661 11.1998C20.2215 11.1791 20.1358 11.1378 20.0149 11.0796C19.1249 10.6508 16.3299 9.30425 14.0492 8.52267L14.0488 8.52254C13.0282 8.17236 12.2512 7.98687 11.821 7.98395H11.7979C11.5382 7.98577 11.2767 8.00667 11.0238 8.03941L17.0168 12.799L9.83595 14.7388L9.35882 14.8677Z" fill="#0B488A"/>
<path d="M18.1663 21.9436L17.8311 21.8346C17.6557 21.7776 17.467 21.8736 17.41 22.0491C17.353 22.2246 17.449 22.4132 17.6245 22.4702L17.959 22.5789C17.9125 22.7967 17.8876 23.0223 17.8876 23.2538C17.8876 23.4853 17.9125 23.711 17.959 23.9288L17.6245 24.0374C17.449 24.0945 17.3529 24.283 17.41 24.4585C17.4559 24.5997 17.5869 24.6895 17.7277 24.6895C17.762 24.6895 17.7968 24.6842 17.8311 24.673L18.1663 24.5641C18.3525 24.9818 18.6243 25.3532 18.96 25.6552L18.7524 25.941C18.6439 26.0903 18.677 26.2993 18.8263 26.4078C18.8856 26.4509 18.9543 26.4716 19.0224 26.4716C19.1257 26.4716 19.2276 26.4239 19.293 26.3339L19.5005 26.0482C19.8853 26.2718 20.3198 26.4189 20.7835 26.4668V26.8182C20.7835 27.0027 20.9331 27.1524 21.1177 27.1524C21.3023 27.1524 21.4519 27.0027 21.4519 26.8182V26.4668C21.9156 26.4189 22.3501 26.2718 22.7349 26.0483L22.9424 26.3339C23.0078 26.4239 23.1097 26.4717 23.213 26.4717C23.2811 26.4717 23.3498 26.4509 23.4091 26.4078C23.5585 26.2993 23.5915 26.0904 23.483 25.9411L23.2754 25.6552C23.6111 25.3532 23.8829 24.9819 24.0691 24.5642L24.4043 24.6731C24.4386 24.6842 24.4734 24.6895 24.5076 24.6895C24.6484 24.6895 24.7795 24.5998 24.8253 24.4586C24.8824 24.2831 24.7863 24.0945 24.6108 24.0375L24.2764 23.9288C24.3229 23.711 24.3478 23.4853 24.3478 23.2538C24.3478 23.0223 24.3228 22.7966 24.2764 22.5788L24.6108 22.4701C24.7863 22.4131 24.8824 22.2246 24.8253 22.0491C24.7683 21.8735 24.5797 21.7775 24.4043 21.8345L24.0691 21.9435C23.8829 21.5258 23.6111 21.1544 23.2754 20.8524L23.483 20.5666C23.5915 20.4173 23.5584 20.2083 23.4091 20.0998C23.26 19.9914 23.0509 20.0244 22.9424 20.1738L22.7349 20.4594C22.3501 20.2358 21.9156 20.0888 21.4518 20.0409V19.6895C21.4518 19.505 21.3022 19.3553 21.1177 19.3553C20.9331 19.3553 20.7835 19.505 20.7835 19.6895V20.0409C20.3197 20.0888 19.8852 20.2359 19.5004 20.4594L19.2929 20.1738C19.1845 20.0245 18.9755 19.9914 18.8262 20.0999C18.6768 20.2083 18.6438 20.4173 18.7523 20.5666L18.9599 20.8525C18.6243 21.1545 18.3525 21.5259 18.1663 21.9436ZM21.1177 20.692C22.5304 20.692 23.6796 21.8412 23.6796 23.2539C23.6796 24.6665 22.5304 25.8157 21.1177 25.8157C19.7051 25.8157 18.5559 24.6665 18.5559 23.2539C18.5559 21.8412 19.7051 20.692 21.1177 20.692Z" fill="#0B488A" stroke="#0B488A" stroke-width="0.6"/>
<path d="M28.5213 15.8502C26.5437 13.8727 23.9145 12.7836 21.1177 12.7836C18.321 12.7836 15.6917 13.8727 13.7141 15.8502C11.7365 17.8278 10.6475 20.4571 10.6475 23.2538C10.6475 26.0506 11.7365 28.6799 13.7141 30.6574C15.6917 32.635 18.321 33.7241 21.1177 33.7241C22.9086 33.7241 24.6761 33.2641 26.2292 32.3937C26.3903 32.3035 26.4476 32.0999 26.3574 31.9389C26.2672 31.7779 26.0636 31.7205 25.9025 31.8107C24.449 32.6252 22.7945 33.0558 21.1177 33.0558C15.7129 33.0558 11.3158 28.6587 11.3158 23.2538C11.3158 17.849 15.7129 13.4519 21.1177 13.4519C26.5226 13.4519 30.9197 17.849 30.9197 23.2538C30.9197 24.9304 30.4889 26.5851 29.6739 28.0391C29.5837 28.2001 29.641 28.4038 29.802 28.494C29.9629 28.5841 30.1666 28.5269 30.2569 28.3659C31.1277 26.8123 31.588 25.0446 31.588 23.2538C31.588 20.4571 30.4989 17.8278 28.5213 15.8502Z" fill="#0B488A" stroke="#0B488A" stroke-width="0.6"/>
<path d="M28.2851 28.639C27.3024 28.639 26.5029 29.4385 26.5029 30.4212C26.5029 31.4039 27.3024 32.2034 28.2851 32.2034C29.2678 32.2034 30.0673 31.4039 30.0673 30.4212C30.0673 29.4385 29.2678 28.639 28.2851 28.639ZM28.2851 31.5351C27.6709 31.5351 27.1712 31.0354 27.1712 30.4212C27.1712 29.807 27.6709 29.3074 28.2851 29.3074C28.8993 29.3074 29.399 29.807 29.399 30.4212C29.399 31.0354 28.8993 31.5351 28.2851 31.5351Z" fill="#0B488A" stroke="#0B488A" stroke-width="0.6"/>
<path d="M16.038 28.3339C17.4387 29.7346 19.2784 30.4349 21.1181 30.4349C22.9579 30.4349 24.7977 29.7346 26.1983 28.3339C28.9994 25.5327 28.9994 20.9749 26.1983 18.1737C24.1735 16.1489 21.1436 15.5194 18.4792 16.5697C18.4366 16.5865 18.3978 16.612 18.3653 16.6444C18.2348 16.7749 18.2349 16.9864 18.3654 17.1169C18.4643 17.2158 18.6098 17.2397 18.7314 17.1886C21.1465 16.2397 23.891 16.8115 25.7256 18.6462C28.2663 21.1868 28.2663 25.3207 25.7256 27.8613C24.4552 29.1318 22.7869 29.7669 21.1181 29.7668C19.4497 29.7666 17.7807 29.1315 16.5105 27.8613C14.6741 26.0249 14.1033 23.2768 15.0561 20.86C15.1238 20.6883 15.0394 20.4942 14.8677 20.4265C14.696 20.3588 14.5019 20.4432 14.4343 20.6149C13.3839 23.2794 14.0134 26.3093 16.038 28.3339Z" fill="#0B488A" stroke="#0B488A" stroke-width="0.6"/>
<path d="M16.2744 16.6278C15.7983 16.6278 15.3508 16.8132 15.0142 17.1498C14.6776 17.4864 14.4922 17.934 14.4922 18.41C14.4922 18.886 14.6776 19.3335 15.0142 19.6702C15.3508 20.0068 15.7983 20.1922 16.2744 20.1922C16.7504 20.1922 17.1979 20.0068 17.5346 19.6702C18.2294 18.9753 18.2294 17.8447 17.5345 17.1498C17.198 16.8132 16.7504 16.6278 16.2744 16.6278ZM17.062 19.1976C16.8516 19.408 16.5719 19.5239 16.2744 19.5239C15.9768 19.5239 15.6972 19.408 15.4867 19.1976C15.2763 18.9872 15.1605 18.7075 15.1605 18.41C15.1605 18.1124 15.2764 17.8327 15.4868 17.6224C15.6972 17.412 15.9768 17.2961 16.2744 17.2961C16.5719 17.2961 16.8516 17.412 17.062 17.6224C17.4963 18.0567 17.4963 18.7633 17.062 19.1976Z" fill="#0B488A" stroke="#0B488A" stroke-width="0.6"/>
</svg>
