<svg width="40" height="40" viewBox="0 0 40 40" fill="none" xmlns="http://www.w3.org/2000/svg">
<circle cx="20" cy="20" r="20" fill="#0B488A"/>
<g clip-path="url(#clip0_213_3)">
<path d="M12.4062 14.75H13.3438V15.6875C13.3438 16.0758 13.6586 16.3906 14.0469 16.3906C14.4352 16.3906 14.75 16.0758 14.75 15.6875V14.75H15.6875C16.0758 14.75 16.3906 14.4352 16.3906 14.0469C16.3906 13.6586 16.0758 13.3438 15.6875 13.3438H14.75V12.4062C14.75 12.0179 14.4352 11.7031 14.0469 11.7031C13.6586 11.7031 13.3438 12.0179 13.3438 12.4062V13.3438H12.4062C12.0179 13.3438 11.7031 13.6586 11.7031 14.0469C11.7031 14.4352 12.0179 14.75 12.4062 14.75Z" fill="white"/>
<path d="M23.3281 14.75H26.1406C26.5289 14.75 26.8438 14.4352 26.8438 14.0469C26.8438 13.6586 26.5289 13.3438 26.1406 13.3438H23.3281C22.9398 13.3438 22.625 13.6586 22.625 14.0469C22.625 14.4352 22.9398 14.75 23.3281 14.75Z" fill="white"/>
<path d="M26.375 25.2031H23.0938C22.7054 25.2031 22.3906 25.5179 22.3906 25.9062C22.3906 26.2946 22.7054 26.6094 23.0938 26.6094H26.375C26.7633 26.6094 27.0781 26.2946 27.0781 25.9062C27.0781 25.5179 26.7633 25.2031 26.375 25.2031Z" fill="white"/>
<path d="M26.375 22.8594H23.0938C22.7054 22.8594 22.3906 23.1742 22.3906 23.5625C22.3906 23.9508 22.7054 24.2656 23.0938 24.2656H26.375C26.7633 24.2656 27.0781 23.9508 27.0781 23.5625C27.0781 23.1742 26.7633 22.8594 26.375 22.8594Z" fill="white"/>
<path d="M15.7159 23.0654C15.4414 22.7908 14.9962 22.7908 14.7216 23.0654L14.0469 23.74L13.3722 23.0653C13.0976 22.7907 12.6524 22.7907 12.3778 23.0653C12.1032 23.3399 12.1032 23.7851 12.3778 24.0597L13.0525 24.7344L12.3778 25.4091C12.1032 25.6837 12.1032 26.1289 12.3778 26.4035C12.5151 26.5408 12.6951 26.6094 12.875 26.6094C13.055 26.6094 13.2349 26.5408 13.3722 26.4034L14.0469 25.7288L14.7216 26.4035C14.8589 26.5408 15.0388 26.6094 15.2188 26.6094C15.3987 26.6094 15.5787 26.5408 15.7159 26.4034C15.9905 26.1288 15.9905 25.6837 15.7159 25.4091L15.0413 24.7344L15.716 24.0597C15.9906 23.7851 15.9906 23.3399 15.7159 23.0654Z" fill="white"/>
<path d="M30.7812 20.711V10.1094C30.7812 8.94627 29.835 8 28.6719 8H10.1094C8.94627 8 8 8.94627 8 10.1094V28.6719C8 29.835 8.94627 30.7812 10.1094 30.7812H20.711C21.8637 31.5508 23.2475 32 24.7344 32C28.7407 32 32 28.7406 32 24.7344C32 23.2475 31.5508 21.8637 30.7812 20.711ZM29.375 10.1094V19.1483C28.1154 18.1001 26.4973 17.4688 24.7344 17.4688C22.9715 17.4688 21.3533 18.1001 20.0938 19.1483V9.40625H28.6719C29.0596 9.40625 29.375 9.72167 29.375 10.1094ZM10.1094 9.40625H18.6875V18.6875H9.40625V10.1094C9.40625 9.72167 9.72167 9.40625 10.1094 9.40625ZM9.40625 28.6719V20.0938H18.6875V20.711C17.918 21.8637 17.4688 23.2475 17.4688 24.7344C17.4688 26.4973 18.1001 28.1154 19.1483 29.375H10.1094C9.72167 29.375 9.40625 29.0596 9.40625 28.6719ZM24.7344 30.5938C21.5035 30.5938 18.875 27.9652 18.875 24.7344C18.875 21.5035 21.5035 18.875 24.7344 18.875C27.9652 18.875 30.5938 21.5035 30.5938 24.7344C30.5938 27.9652 27.9652 30.5938 24.7344 30.5938Z" fill="white"/>
</g>
<defs>
<clipPath id="clip0_213_3">
<rect width="24" height="24" fill="white" transform="translate(8 8)"/>
</clipPath>
</defs>
</svg>
