<svg width="40" height="40" viewBox="0 0 40 40" fill="none" xmlns="http://www.w3.org/2000/svg">
<circle cx="20" cy="20" r="20" fill="white"/>
<path d="M31.5226 22.1156C31.4427 21.984 31.2994 21.909 31.1428 21.9157L26.3316 22.1906L26.3865 22.1606L25.2937 20.1931C25.2204 20.0615 25.0804 19.9782 24.9288 19.9782H23.3595L22.305 18.079C22.2317 17.9474 22.0917 17.8641 21.9401 17.8641H17.5671V16.8912C17.5671 16.6613 17.3805 16.4747 17.1506 16.4747H13.9703C13.7404 16.4747 13.5538 16.6613 13.5538 16.8912V17.8641H12.5392C12.3477 17.8641 12.1811 17.9941 12.1361 18.179L10.9083 23.0719L9.87874 23.1302C9.65884 23.1435 9.48558 23.3251 9.48558 23.5466V27.8048C9.17738 27.7282 8.96747 27.5766 8.72258 27.3966C8.32442 27.1068 7.87462 26.7752 7 26.7752V27.6082C7.6014 27.6082 7.87795 27.8114 8.22946 28.0697C8.62762 28.3612 9.07743 28.6927 9.95204 28.6927C10.8267 28.6927 11.2765 28.3612 11.6746 28.0697C12.0261 27.8114 12.3027 27.6082 12.9041 27.6082C13.5055 27.6082 13.782 27.8114 14.1336 28.0697C14.5317 28.3612 14.9815 28.6927 15.8561 28.6927C16.7308 28.6927 17.1806 28.3612 17.5787 28.0697C17.9302 27.8114 18.2068 27.6082 18.8082 27.6082C19.4096 27.6082 19.6861 27.8114 20.0376 28.0697C20.4358 28.3612 20.8856 28.6927 21.7602 28.6927C22.6348 28.6927 23.0846 28.3612 23.4828 28.0697C23.8326 27.8114 24.1109 27.6082 24.7123 27.6082C25.3137 27.6082 25.5902 27.8114 25.9417 28.0697C26.3399 28.3612 26.7897 28.6927 27.6643 28.6927C28.5389 28.6927 28.9887 28.3612 29.3869 28.0697C29.7384 27.8114 30.0149 27.6082 30.6164 27.6082V26.7752C29.7417 26.7752 29.2919 27.1068 28.8938 27.3983C28.7638 27.4933 28.6439 27.5815 28.5123 27.6549L31.531 22.5421C31.6043 22.4105 31.6026 22.2472 31.5226 22.1156ZM12.8641 18.6971H13.9703C14.2002 18.6971 14.3868 18.5105 14.3868 18.2806V17.3077H16.7341V18.2806C16.7341 18.5105 16.9207 18.6971 17.1506 18.6971H21.6969L22.4083 19.9782H19.4429V20.8112H24.6839L25.4769 22.2405L11.7779 23.0235L12.8641 18.6971ZM27.4261 27.8481C26.9796 27.8015 26.7314 27.6215 26.4298 27.3983C26.0317 27.1068 25.5819 26.7752 24.7073 26.7752C23.8326 26.7752 23.3828 27.1068 22.9847 27.3983C22.6332 27.6565 22.3566 27.8598 21.7552 27.8598C21.1538 27.8598 20.8773 27.6565 20.5258 27.3983C20.1276 27.1068 19.6778 26.7752 18.8032 26.7752C17.9286 26.7752 17.4788 27.1068 17.0806 27.3983C16.7291 27.6565 16.4525 27.8598 15.8511 27.8598C15.2497 27.8598 14.9732 27.6565 14.6217 27.3983C14.2235 27.1068 13.7737 26.7752 12.8991 26.7752C12.0245 26.7752 11.5747 27.1068 11.1765 27.3983C10.9066 27.5965 10.6784 27.7615 10.3152 27.8281V23.9415L30.4081 22.792L27.4261 27.8481Z" fill="#0B488A" stroke="#0B488A" stroke-width="0.3"/>
<path d="M24.7075 29.0824C23.8329 29.0824 23.3831 29.4139 22.9849 29.7055C22.6351 29.9637 22.3568 30.1669 21.7554 30.1669C21.154 30.1669 20.8775 29.9637 20.526 29.7055C20.1278 29.4139 19.678 29.0824 18.8034 29.0824C17.9288 29.0824 17.479 29.4139 17.0808 29.7055C16.7293 29.9637 16.4528 30.1669 15.8514 30.1669C15.2499 30.1669 14.9734 29.9637 14.6219 29.7055C14.2237 29.4139 13.7739 29.0824 12.8993 29.0824C12.0247 29.0824 11.5749 29.4139 11.1767 29.7055C10.8252 29.9637 10.5487 30.1669 9.94727 30.1669V30.9999C10.8219 30.9999 11.2717 30.6684 11.6698 30.3768C12.0214 30.1186 12.2979 29.9154 12.8993 29.9154C13.5007 29.9154 13.7773 30.1186 14.1288 30.3768C14.5269 30.6684 14.9767 30.9999 15.8514 30.9999C16.726 30.9999 17.1758 30.6684 17.5739 30.3768C17.9254 30.1186 18.202 29.9154 18.8034 29.9154C19.4048 29.9154 19.6813 30.1186 20.0329 30.3768C20.431 30.6684 20.8808 30.9999 21.7554 30.9999C22.6301 30.9999 23.0799 30.6684 23.478 30.3768C23.8279 30.1186 24.1061 29.9154 24.7075 29.9154C25.3089 29.9154 25.5854 30.1186 25.9369 30.3768C26.3351 30.6684 26.7849 30.9999 27.6595 30.9999V30.1669C27.0581 30.1669 26.7816 29.9637 26.4301 29.7055C26.0319 29.4139 25.5821 29.0824 24.7075 29.0824Z" fill="#0B488A" stroke="#0B488A" stroke-width="0.3"/>
<path d="M15.5483 19.9514H13.9707V20.7844H15.5483V19.9514Z" fill="#0B488A" stroke="#0B488A" stroke-width="0.3"/>
<path d="M18.2105 19.9514H16.6328V20.7844H18.2105V19.9514Z" fill="#0B488A" stroke="#0B488A" stroke-width="0.3"/>
<path d="M27.1337 13.9024C27.0943 13.9024 27.055 13.8971 27.0156 13.8759C26.8806 13.8176 26.8187 13.6638 26.8862 13.5365L28.0786 11.1762L26.4138 11.3195C26.3182 11.3301 26.2282 11.2876 26.1719 11.2187C26.1157 11.1497 26.0988 11.0596 26.1325 10.9747L27.2349 8.16895C27.2856 8.03635 27.443 7.9674 27.5836 8.01513C27.7243 8.06287 27.7974 8.21138 27.7468 8.34398L26.7906 10.7732L28.5004 10.6246C28.6017 10.614 28.6917 10.6565 28.7479 10.7307C28.8041 10.805 28.8154 10.9004 28.7704 10.9853L27.3755 13.7486C27.3362 13.8494 27.2349 13.9024 27.1337 13.9024Z" fill="#0B488A" stroke="#0B488A" stroke-width="0.5"/>
<path d="M32.2908 12.2671C32.1482 12.2671 32.0319 12.1508 32.0319 12.0135V11.1893H31.2236C31.081 11.1893 30.9647 11.0731 30.9647 10.9357C30.9647 10.7931 31.081 10.6821 31.2236 10.6821H32.0319V9.85796C32.0319 9.71532 32.1482 9.60437 32.2908 9.60437C32.4334 9.60437 32.5497 9.7206 32.5497 9.85796V10.6821H33.3685C33.5112 10.6821 33.6274 10.7983 33.6274 10.9357C33.6274 11.0784 33.5112 11.1893 33.3685 11.1893H32.5497V12.0135C32.5444 12.1508 32.4282 12.2671 32.2908 12.2671ZM23.4038 11.1893H21.2589C21.1162 11.1893 21 11.0731 21 10.9357C21 10.7931 21.1162 10.6821 21.2589 10.6821H23.4038C23.5465 10.6821 23.6627 10.7983 23.6627 10.9357C23.6627 11.0784 23.5465 11.1893 23.4038 11.1893Z" fill="#0B488A" stroke="#0B488A" stroke-width="0.5"/>
</svg>
