<svg width="32" height="32" viewBox="0 0 32 32" fill="none" xmlns="http://www.w3.org/2000/svg">
<path d="M24 18.6667C23.6222 18.6667 23.3058 18.5387 23.0507 18.2827C22.7947 18.0276 22.6667 17.7111 22.6667 17.3333V6.66667H12C11.6222 6.66667 11.3058 6.53867 11.0507 6.28267C10.7947 6.02756 10.6667 5.71111 10.6667 5.33333C10.6667 4.95556 10.7947 4.63867 11.0507 4.38267C11.3058 4.12756 11.6222 4 12 4H24C24.3778 4 24.6942 4.12756 24.9493 4.38267C25.2053 4.63867 25.3333 4.95556 25.3333 5.33333V17.3333C25.3333 17.7111 25.2053 18.0276 24.9493 18.2827C24.6942 18.5387 24.3778 18.6667 24 18.6667ZM17.3333 25.3333C16.9556 25.3333 16.6391 25.2053 16.384 24.9493C16.128 24.6942 16 24.3778 16 24V13.3333H5.33333C4.95556 13.3333 4.63911 13.2053 4.384 12.9493C4.128 12.6942 4 12.3778 4 12C4 11.6222 4.128 11.3053 4.384 11.0493C4.63911 10.7942 4.95556 10.6667 5.33333 10.6667H17.3333C17.7111 10.6667 18.028 10.7942 18.284 11.0493C18.5391 11.3053 18.6667 11.6222 18.6667 12V24C18.6667 24.3778 18.5391 24.6942 18.284 24.9493C18.028 25.2053 17.7111 25.3333 17.3333 25.3333Z" fill="white"/>
</svg>
