<svg width="40" height="40" viewBox="0 0 40 40" fill="none" xmlns="http://www.w3.org/2000/svg">
<circle cx="20" cy="20" r="20" fill="white"/>
<path d="M28.2382 21.4693L29.8527 19.8549C31.3306 18.3769 31.3722 16.0078 29.9828 14.4794L23.6733 7.48412C22.8159 6.54091 21.5931 6 20.3184 6C19.0437 6 17.8209 6.54091 16.9613 7.48647L10.6561 14.4769C9.26288 16.0095 9.30586 18.3767 10.7841 19.8548L12.3985 21.4692C9.70951 22.6647 8 25.3173 8 28.2278V31.5127C8 31.9662 8.36769 32.3339 8.82122 32.3339H12.9273V33.2099C12.9273 33.6634 13.295 34.0311 13.7486 34.0311H26.8882C27.3417 34.0311 27.7094 33.6634 27.7094 33.2099V32.3339H31.8155C32.269 32.3339 32.6367 31.9662 32.6367 31.5127V28.2278C32.6367 25.3199 30.9296 22.6657 28.2382 21.4693ZM11.8735 15.5794L18.1787 8.58894C18.7256 7.98742 19.5054 7.64245 20.3184 7.64245C21.1313 7.64245 21.9111 7.98742 22.4558 8.58658L28.7654 15.5818C28.8326 15.6558 28.8942 15.7338 28.9505 15.8149C26.3138 14.7381 23.1963 14.267 20.3184 14.267C17.4732 14.267 14.3417 14.7305 11.6866 15.8148C11.7434 15.7329 11.8056 15.6542 11.8735 15.5794ZM24.4245 16.2498V16.7307C24.4245 18.9948 22.5825 20.8368 20.3184 20.8368C18.0542 20.8368 16.2122 18.9948 16.2122 16.7307V16.2498C17.5181 16.0271 18.904 15.9094 20.3184 15.9094C21.7327 15.9094 23.1186 16.0271 24.4245 16.2498ZM26.0669 32.3887H14.5698V26.5853C14.5698 26.1325 14.9382 25.7641 15.391 25.7641H25.2457C25.6985 25.7641 26.0669 26.1325 26.0669 26.5853V32.3887ZM30.9943 30.6915H27.7094V26.5853C27.7094 25.2269 26.6042 24.1217 25.2457 24.1217H15.391C14.0325 24.1217 12.9273 25.2269 12.9273 26.5853V30.6915H9.64245V28.2278C9.64245 25.5312 11.475 23.2272 14.0987 22.6249C14.3899 22.558 14.6217 22.3384 14.7043 22.0513C14.7868 21.7642 14.7069 21.455 14.4957 21.2438L11.9454 18.6935C11.6788 18.4269 11.4872 18.1052 11.3811 17.7542C12.3196 17.2833 13.3976 16.8938 14.5698 16.596V16.7307C14.5698 19.9004 17.1486 22.4792 20.3184 22.4792C23.4881 22.4792 26.0669 19.9004 26.0669 16.7307V16.596C27.2392 16.8937 28.3171 17.2832 29.2556 17.7541C29.1495 18.1052 28.9579 18.4268 28.6913 18.6934L26.141 21.2437C25.9298 21.4549 25.8499 21.7642 25.9324 22.0513C26.0149 22.3384 26.2468 22.558 26.538 22.6248C29.1617 23.2272 30.9943 25.5312 30.9943 28.2278V30.6915Z" fill="#0B488A"/>
</svg>
