<svg width="19" height="32" viewBox="0 0 19 32" fill="none" xmlns="http://www.w3.org/2000/svg">
<path d="M0.969187 30.7516C0.546386 30.3288 0.335483 29.8314 0.336477 29.2594C0.335482 28.6874 0.546386 28.1899 0.969187 27.7671L12.9071 15.8292L0.969187 3.89133C0.546386 3.46853 0.335483 2.97111 0.336478 2.39909C0.335483 1.82706 0.546386 1.32965 0.969187 0.90685C1.39199 0.484049 1.8899 0.272649 2.46292 0.272649C3.03395 0.272649 3.53086 0.484049 3.95366 0.90685L17.3838 14.337C17.8066 14.7598 18.018 15.2567 18.018 15.8277C18.018 16.4008 17.8066 16.8987 17.3838 17.3215L3.95366 30.7516C3.53086 31.1744 3.03345 31.3853 2.46142 31.3843C1.8894 31.3853 1.39199 31.1744 0.969187 30.7516Z" fill="#CC1D0E"/>
</svg>
