<svg width="40" height="40" viewBox="0 0 40 40" fill="none" xmlns="http://www.w3.org/2000/svg">
<circle cx="20" cy="20" r="20" fill="white"/>
<path d="M25.609 23.0784C25.6147 23.0569 25.6212 23.0362 25.6222 23.0137C25.6225 23.009 25.625 23.005 25.625 23C25.625 18.7969 22.2884 15.3603 18.125 15.1953V14.5625C18.125 14.3897 17.985 14.25 17.8125 14.25C17.64 14.25 17.5 14.3897 17.5 14.5625V15.1953C13.3366 15.3603 10 18.7969 10 23C10 23.005 10.0025 23.009 10.0028 23.014C10.0037 23.0362 10.01 23.0569 10.0159 23.0787C10.0209 23.0972 10.0237 23.1156 10.0316 23.1325C10.0394 23.149 10.0516 23.1628 10.0622 23.1778C10.0753 23.1962 10.0875 23.2147 10.1044 23.23C10.1078 23.2331 10.1094 23.2378 10.1131 23.2409C10.1244 23.2503 10.1381 23.2534 10.15 23.2609C10.1684 23.2725 10.1859 23.284 10.2069 23.2915C10.2287 23.2997 10.2509 23.3022 10.2734 23.305C10.2869 23.3062 10.2987 23.3125 10.3125 23.3125C10.3172 23.3125 10.3209 23.31 10.3256 23.31C10.3494 23.309 10.3716 23.3025 10.3944 23.2962C10.4112 23.2915 10.4284 23.289 10.4437 23.2815C10.4616 23.2734 10.4762 23.2603 10.4925 23.2487C10.5097 23.2362 10.5272 23.2247 10.5416 23.209C10.545 23.2053 10.5497 23.2037 10.5531 23.1997C10.9937 22.6678 11.5744 22.375 12.1875 22.375C12.8006 22.375 13.3812 22.6678 13.8219 23.1997C13.8278 23.2069 13.8369 23.2097 13.8434 23.2162C13.8509 23.2237 13.8547 23.2337 13.8631 23.2406C13.8756 23.2509 13.8906 23.2547 13.9037 23.2628C13.9197 23.2725 13.9344 23.2822 13.9512 23.2884C13.9769 23.2984 14.0025 23.3025 14.0291 23.3053C14.0406 23.3065 14.0512 23.3125 14.0625 23.3125C14.0675 23.3125 14.0722 23.3103 14.0769 23.31C14.0928 23.3094 14.1075 23.3053 14.1231 23.3022C14.1447 23.2978 14.1653 23.2928 14.1856 23.2837C14.2012 23.2769 14.2153 23.2681 14.2297 23.2584C14.24 23.2519 14.2516 23.2484 14.2612 23.2403C14.2687 23.234 14.2722 23.2253 14.2791 23.2184C14.2862 23.2112 14.2959 23.2075 14.3025 23.1994C14.7437 22.6678 15.3244 22.375 15.9375 22.375C16.5187 22.375 17.0687 22.6406 17.5 23.1206V31.4375C17.5 31.9543 17.0794 32.375 16.5625 32.375C16.0456 32.375 15.625 31.9543 15.625 31.4375C15.625 31.2647 15.485 31.125 15.3125 31.125C15.14 31.125 15 31.2647 15 31.4375C15 32.299 15.7009 33 16.5625 33C17.4241 33 18.125 32.299 18.125 31.4375V23.1206C18.5562 22.6406 19.1062 22.375 19.6875 22.375C20.3006 22.375 20.8812 22.6678 21.3219 23.1997C21.3278 23.2069 21.3369 23.2097 21.3434 23.2162C21.3509 23.2237 21.3547 23.2337 21.3631 23.2406C21.3756 23.2509 21.3906 23.2544 21.4037 23.2625C21.4197 23.2722 21.4344 23.2819 21.4515 23.2884C21.4769 23.2981 21.5025 23.3025 21.5294 23.3053C21.5406 23.3065 21.5512 23.3125 21.5625 23.3125C21.5675 23.3125 21.5722 23.3103 21.5769 23.31C21.5928 23.3094 21.6078 23.3053 21.6234 23.3019C21.6447 23.2975 21.6653 23.2925 21.6856 23.2837C21.7015 23.2769 21.7156 23.2678 21.73 23.2584C21.7403 23.2519 21.7519 23.2484 21.7615 23.2406C21.769 23.2344 21.7725 23.2256 21.779 23.2187C21.7862 23.2115 21.7959 23.2078 21.8028 23.1997C22.2437 22.6678 22.8244 22.375 23.4375 22.375C24.0506 22.375 24.6312 22.6678 25.0719 23.1997C25.075 23.2034 25.0794 23.2044 25.0828 23.2081C25.1047 23.2322 25.1309 23.2503 25.1594 23.2669C25.169 23.2725 25.1765 23.2809 25.1869 23.2853C25.2253 23.3022 25.2675 23.3125 25.3125 23.3125C25.3509 23.3125 25.389 23.304 25.4253 23.2897C25.4394 23.284 25.4509 23.275 25.464 23.2675C25.48 23.2584 25.4972 23.2525 25.5115 23.2403C25.5153 23.2372 25.5169 23.2328 25.5203 23.2294C25.5372 23.214 25.549 23.1959 25.5625 23.1772C25.5731 23.1622 25.5853 23.1481 25.5931 23.1319C25.6012 23.1153 25.6044 23.0969 25.609 23.0784ZM23.4375 21.75C22.7444 21.75 22.09 22.0297 21.5625 22.5419C21.035 22.0297 20.3806 21.75 19.6875 21.75C18.9944 21.75 18.34 22.0297 17.8125 22.5419C17.285 22.0297 16.6306 21.75 15.9375 21.75C15.2444 21.75 14.59 22.0297 14.0625 22.5419C13.535 22.0297 12.8806 21.75 12.1875 21.75C11.6406 21.75 11.1194 21.9269 10.6641 22.2515C11.0397 18.6387 14.1022 15.8125 17.8125 15.8125C21.5228 15.8125 24.5853 18.6387 24.9609 22.2515C24.5056 21.9269 23.9844 21.75 23.4375 21.75Z" fill="#0B488A" stroke="#0B488A" stroke-width="0.5"/>
<path d="M29.1747 13.0627C29.1792 13.0455 29.1845 13.029 29.1852 13.011C29.1855 13.0072 29.1875 13.004 29.1875 13C29.1875 9.6375 26.5182 6.88825 23.1875 6.75625V6.25C23.1875 6.11175 23.0755 6 22.9375 6C22.7995 6 22.6875 6.11175 22.6875 6.25V6.75625C19.3567 6.88825 16.6875 9.6375 16.6875 13C16.6875 13.004 16.6895 13.0072 16.6897 13.0112C16.6905 13.029 16.6955 13.0455 16.7003 13.063C16.7043 13.0777 16.7065 13.0925 16.7127 13.106C16.719 13.1192 16.7287 13.1302 16.7372 13.1422C16.7477 13.157 16.7575 13.1717 16.771 13.184C16.7737 13.1865 16.775 13.1902 16.778 13.1927C16.787 13.2002 16.798 13.2027 16.8075 13.2087C16.8222 13.218 16.8362 13.2272 16.853 13.2332C16.8705 13.2397 16.8882 13.2417 16.9062 13.244C16.917 13.245 16.9265 13.25 16.9375 13.25C16.9412 13.25 16.9442 13.248 16.948 13.248C16.967 13.2472 16.9847 13.242 17.003 13.237C17.0165 13.2332 17.0302 13.2312 17.0425 13.2252C17.0567 13.2187 17.0685 13.2082 17.0815 13.199C17.0952 13.189 17.1092 13.1797 17.1207 13.1672C17.1235 13.1642 17.1272 13.163 17.13 13.1597C17.4825 12.7342 17.947 12.5 18.4375 12.5C18.928 12.5 19.3925 12.7342 19.745 13.1597C19.7497 13.1655 19.757 13.1677 19.7622 13.173C19.7682 13.179 19.7712 13.187 19.778 13.1925C19.788 13.2007 19.8 13.2037 19.8105 13.2102C19.8232 13.218 19.835 13.2257 19.8485 13.2307C19.869 13.2387 19.8895 13.242 19.9107 13.2442C19.92 13.2452 19.9285 13.25 19.9375 13.25C19.9415 13.25 19.9452 13.2482 19.949 13.248C19.9617 13.2475 19.9735 13.2442 19.986 13.2417C20.0032 13.2382 20.0197 13.2342 20.036 13.227C20.0485 13.2215 20.0597 13.2145 20.0712 13.2067C20.0795 13.2015 20.0887 13.1987 20.0965 13.1922C20.1025 13.1872 20.1052 13.1802 20.1107 13.1747C20.1165 13.169 20.1242 13.166 20.1295 13.1595C20.4825 12.7342 20.947 12.5 21.4375 12.5C21.9025 12.5 22.3425 12.7125 22.6875 13.0965L22.7465 17.5401C22.7465 17.9536 23.476 17.625 23.0625 17.625C22.649 17.625 22.6875 17.476 22.6875 17.0625C22.8255 17.0625 22.6875 16.9242 22.6875 17.0625C22.6875 16.9242 22.5495 17.0625 22.6875 17.0625C22.875 17.625 22.4982 17.8125 23.1875 17.8125C23.1875 18.5017 23.8767 17.8125 23.1875 17.8125V13.0965C23.5325 12.7125 23.9725 12.5 24.4375 12.5C24.928 12.5 25.3925 12.7342 25.745 13.1597C25.7497 13.1655 25.757 13.1677 25.7622 13.173C25.7682 13.179 25.7712 13.187 25.778 13.1925C25.788 13.2007 25.8 13.2035 25.8105 13.21C25.8232 13.2177 25.835 13.2255 25.8487 13.2307C25.869 13.2385 25.8895 13.242 25.911 13.2442C25.92 13.2452 25.9285 13.25 25.9375 13.25C25.9415 13.25 25.9452 13.2482 25.949 13.248C25.9617 13.2475 25.9737 13.2442 25.9862 13.2415C26.0032 13.238 26.0197 13.234 26.036 13.227C26.0487 13.2215 26.06 13.2142 26.0715 13.2067C26.0797 13.2015 26.089 13.1987 26.0967 13.1925C26.1027 13.1875 26.1055 13.1805 26.1107 13.175C26.1165 13.1692 26.1242 13.1662 26.1297 13.1597C26.4825 12.7342 26.947 12.5 27.4375 12.5C27.928 12.5 28.3925 12.7342 28.745 13.1597C28.7475 13.1627 28.751 13.1635 28.7537 13.1665C28.7712 13.1857 28.7922 13.2002 28.815 13.2135C28.8227 13.218 28.8287 13.2247 28.837 13.2282C28.8677 13.2417 28.9015 13.25 28.9375 13.25C28.9682 13.25 28.9987 13.2432 29.0277 13.2317C29.039 13.2272 29.0482 13.22 29.0587 13.214C29.0715 13.2067 29.0852 13.202 29.0967 13.1922C29.0997 13.1897 29.101 13.1862 29.1037 13.1835C29.1172 13.1712 29.1267 13.1567 29.1375 13.1417C29.146 13.1297 29.1557 13.1185 29.162 13.1055C29.1685 13.0922 29.171 13.0775 29.1747 13.0627ZM27.4375 12C26.883 12 26.3595 12.2237 25.9375 12.6335C25.5155 12.2237 24.992 12 24.4375 12C23.883 12 23.3595 12.2237 22.9375 12.6335C22.5155 12.2237 21.992 12 21.4375 12C20.883 12 20.3595 12.2237 19.9375 12.6335C19.5155 12.2237 18.992 12 18.4375 12C18 12 17.583 12.1415 17.2187 12.4012C17.5192 9.51099 19.9692 7.25 22.9375 7.25C25.9057 7.25 28.3557 9.51099 28.6562 12.4012C28.292 12.1415 27.875 12 27.4375 12Z" fill="#0B488A"/>
<path d="M22.6875 17.0625C22.6875 17.476 22.649 17.625 23.0625 17.625C23.476 17.625 22.7465 17.9536 22.7465 17.5401L22.6875 13.0965C22.3425 12.7125 21.9025 12.5 21.4375 12.5C20.947 12.5 20.4825 12.7342 20.1295 13.1595C20.1242 13.166 20.1165 13.169 20.1107 13.1747C20.1052 13.1802 20.1025 13.1872 20.0965 13.1922C20.0887 13.1987 20.0795 13.2015 20.0712 13.2067C20.0597 13.2145 20.0485 13.2215 20.036 13.227C20.0197 13.2342 20.0032 13.2382 19.986 13.2417C19.9735 13.2442 19.9617 13.2475 19.949 13.248C19.9452 13.2482 19.9415 13.25 19.9375 13.25C19.9285 13.25 19.92 13.2452 19.9107 13.2442C19.8895 13.242 19.869 13.2387 19.8485 13.2307C19.835 13.2257 19.8232 13.218 19.8105 13.2102C19.8 13.2037 19.788 13.2007 19.778 13.1925C19.7712 13.187 19.7682 13.179 19.7622 13.173C19.757 13.1677 19.7497 13.1655 19.745 13.1597C19.3925 12.7342 18.928 12.5 18.4375 12.5C17.947 12.5 17.4825 12.7342 17.13 13.1597C17.1272 13.163 17.1235 13.1642 17.1207 13.1672C17.1092 13.1797 17.0952 13.189 17.0815 13.199C17.0685 13.2082 17.0567 13.2187 17.0425 13.2252C17.0302 13.2312 17.0165 13.2332 17.003 13.237C16.9847 13.242 16.967 13.2472 16.948 13.248C16.9442 13.248 16.9412 13.25 16.9375 13.25C16.9265 13.25 16.917 13.245 16.9062 13.244C16.8882 13.2417 16.8705 13.2397 16.853 13.2332C16.8362 13.2272 16.8222 13.218 16.8075 13.2087C16.798 13.2027 16.787 13.2002 16.778 13.1927C16.775 13.1902 16.7737 13.1865 16.771 13.184C16.7575 13.1717 16.7477 13.157 16.7372 13.1422C16.7287 13.1302 16.719 13.1192 16.7127 13.106C16.7065 13.0925 16.7043 13.0777 16.7003 13.063C16.6955 13.0455 16.6905 13.029 16.6897 13.0112C16.6895 13.0072 16.6875 13.004 16.6875 13C16.6875 9.6375 19.3567 6.88825 22.6875 6.75625V6.25C22.6875 6.11175 22.7995 6 22.9375 6C23.0755 6 23.1875 6.11175 23.1875 6.25V6.75625C26.5182 6.88825 29.1875 9.6375 29.1875 13C29.1875 13.004 29.1855 13.0072 29.1852 13.011C29.1845 13.029 29.1792 13.0455 29.1747 13.0627C29.171 13.0775 29.1685 13.0922 29.162 13.1055C29.1557 13.1185 29.146 13.1297 29.1375 13.1417C29.1267 13.1567 29.1172 13.1712 29.1037 13.1835C29.101 13.1862 29.0997 13.1897 29.0967 13.1922C29.0852 13.202 29.0715 13.2067 29.0587 13.214C29.0482 13.22 29.039 13.2272 29.0277 13.2317C28.9987 13.2432 28.9682 13.25 28.9375 13.25C28.9015 13.25 28.8677 13.2417 28.837 13.2282C28.8287 13.2247 28.8227 13.218 28.815 13.2135C28.7922 13.2002 28.7712 13.1857 28.7537 13.1665C28.751 13.1635 28.7475 13.1627 28.745 13.1597C28.3925 12.7342 27.928 12.5 27.4375 12.5C26.947 12.5 26.4825 12.7342 26.1297 13.1597C26.1242 13.1662 26.1165 13.1692 26.1107 13.175C26.1055 13.1805 26.1027 13.1875 26.0967 13.1925C26.089 13.1987 26.0797 13.2015 26.0715 13.2067C26.06 13.2142 26.0487 13.2215 26.036 13.227C26.0197 13.234 26.0032 13.238 25.9862 13.2415C25.9737 13.2442 25.9617 13.2475 25.949 13.248C25.9452 13.2482 25.9415 13.25 25.9375 13.25C25.9285 13.25 25.92 13.2452 25.911 13.2442C25.8895 13.242 25.869 13.2385 25.8487 13.2307C25.835 13.2255 25.8232 13.2177 25.8105 13.21C25.8 13.2035 25.788 13.2007 25.778 13.1925C25.7712 13.187 25.7682 13.179 25.7622 13.173C25.757 13.1677 25.7497 13.1655 25.745 13.1597C25.3925 12.7342 24.928 12.5 24.4375 12.5C23.9725 12.5 23.5325 12.7125 23.1875 13.0965V17.8125M22.6875 17.0625C22.6875 16.9242 22.8255 17.0625 22.6875 17.0625ZM22.6875 17.0625C22.5495 17.0625 22.6875 16.9242 22.6875 17.0625ZM22.6875 17.0625C22.875 17.625 22.4982 17.8125 23.1875 17.8125M23.1875 17.8125C23.8767 17.8125 23.1875 18.5017 23.1875 17.8125ZM27.4375 12C26.883 12 26.3595 12.2237 25.9375 12.6335C25.5155 12.2237 24.992 12 24.4375 12C23.883 12 23.3595 12.2237 22.9375 12.6335C22.5155 12.2237 21.992 12 21.4375 12C20.883 12 20.3595 12.2237 19.9375 12.6335C19.5155 12.2237 18.992 12 18.4375 12C18 12 17.583 12.1415 17.2187 12.4012C17.5192 9.51099 19.9692 7.25 22.9375 7.25C25.9057 7.25 28.3557 9.51099 28.6562 12.4012C28.292 12.1415 27.875 12 27.4375 12Z" stroke="#0B488A" stroke-width="0.5"/>
</svg>
