<svg width="40" height="40" viewBox="0 0 40 40" fill="none" xmlns="http://www.w3.org/2000/svg">
<circle cx="20" cy="20" r="20" fill="white"/>
<path d="M20.3775 11.297H20.3877C20.96 11.2919 21.5016 11.0671 21.9052 10.6583C22.3088 10.2496 22.5285 9.70799 22.5234 9.13573C22.5183 7.95546 21.5526 7 20.3775 7H20.3673C19.795 7.00511 19.2534 7.22992 18.8498 7.63868C18.4461 8.04743 18.2264 8.58903 18.2315 9.16128C18.2366 10.3416 19.2023 11.297 20.3775 11.297ZM19.7235 8.50217C19.8972 8.32845 20.1271 8.23137 20.3724 8.22626H20.3775C20.8833 8.22626 21.2972 8.63501 21.2972 9.14084C21.2972 9.38609 21.2052 9.62113 21.0315 9.79485C20.8578 9.96857 20.6278 10.0656 20.3826 10.0708H20.3775C19.8717 10.0708 19.4578 9.662 19.4578 9.15617C19.4578 8.91092 19.5498 8.67589 19.7235 8.50217Z" fill="#0B488A" stroke="#0B488A" stroke-width="0.2"/>
<path d="M23.2491 13.3663C22.6053 12.3086 21.6243 11.7517 20.4185 11.7517C20.4134 11.7517 20.4031 11.7517 20.398 11.7517C19.182 11.7568 18.201 12.3291 17.5623 13.3969C17.1025 14.1685 16.8112 15.2108 16.6988 16.4932C16.6682 16.8305 16.9185 17.1268 17.2558 17.1575C17.2762 17.1575 17.2915 17.1575 17.3068 17.1575C17.6236 17.1575 17.8893 16.9173 17.9149 16.5954C18.1244 14.1991 18.9572 12.9831 20.398 12.9729C20.4031 12.9729 20.4083 12.9729 20.4134 12.9729C21.844 12.9729 22.6871 14.1838 22.9221 16.5699C22.9527 16.9071 23.2542 17.1524 23.5914 17.1217C23.9286 17.091 24.1739 16.7896 24.1432 16.4524C24.0155 15.1699 23.714 14.1327 23.2491 13.3663Z" fill="#0B488A" stroke="#0B488A" stroke-width="0.2"/>
<path d="M29.2317 25.966H29.2419C29.8142 25.9608 30.3558 25.736 30.7594 25.3273C31.163 24.9185 31.3827 24.3769 31.3827 23.8047C31.3776 22.6244 30.412 21.6689 29.2368 21.6689H29.2266C28.0412 21.6741 27.0857 22.6448 27.0908 23.8302C27.0908 25.0054 28.0565 25.966 29.2317 25.966ZM29.2266 22.8952H29.2317C29.7375 22.8952 30.1514 23.304 30.1514 23.8098C30.1514 24.055 30.0594 24.2901 29.8857 24.4638C29.712 24.6375 29.482 24.7346 29.2368 24.7397H29.2317C28.7259 24.7397 28.312 24.3309 28.312 23.8251C28.3069 23.3142 28.7207 22.9003 29.2266 22.8952Z" fill="#0B488A" stroke="#0B488A" stroke-width="0.2"/>
<path d="M32.9977 31.1163C32.8751 29.8338 32.5736 28.7966 32.1036 28.0302C31.4598 26.9726 30.4788 26.4156 29.273 26.4156C29.2679 26.4156 29.2576 26.4156 29.2525 26.4156C28.0365 26.4208 27.0555 26.993 26.4168 28.0609C25.957 28.8324 25.6657 29.8747 25.5533 31.1572C25.5227 31.4944 25.773 31.7907 26.1102 31.8214C26.1307 31.8214 26.146 31.8214 26.1613 31.8214C26.4781 31.8214 26.7438 31.5813 26.7694 31.2594C26.9788 28.8631 27.8117 27.647 29.2525 27.6368C29.2576 27.6368 29.2627 27.6368 29.2679 27.6368C30.6985 27.6368 31.5415 28.8477 31.7766 31.2338C31.8072 31.571 32.1087 31.8163 32.4459 31.7856C32.7831 31.755 33.0284 31.4535 32.9977 31.1163Z" fill="#0B488A" stroke="#0B488A" stroke-width="0.2"/>
<path d="M20.4286 18.4655C20.5921 18.4655 20.7453 18.3991 20.8629 18.2867C20.9753 18.1743 21.0417 18.0159 21.0417 17.8524C21.0417 17.6889 20.9753 17.5305 20.8629 17.4181C20.7505 17.3057 20.5921 17.2393 20.4286 17.2393C20.2651 17.2393 20.1067 17.3057 19.9943 17.4181C19.8819 17.5305 19.8154 17.6889 19.8154 17.8524C19.8154 18.0159 19.8819 18.1743 19.9943 18.2867C20.1067 18.3991 20.2651 18.4655 20.4286 18.4655Z" fill="#0B488A" stroke="#0B488A" stroke-width="0.2"/>
<path d="M20.4394 21.1172C20.4445 21.1172 20.4445 21.1172 20.4394 21.1172C20.7817 21.1172 21.0525 20.8413 21.0525 20.499C21.0525 20.1617 20.7766 19.8858 20.4343 19.8909C20.097 19.8909 19.8211 20.1668 19.8262 20.5092C19.8314 20.8413 20.1073 21.1172 20.4394 21.1172Z" fill="#0B488A" stroke="#0B488A" stroke-width="0.2"/>
<path d="M20.4539 22.5377C20.2904 22.5377 20.1321 22.6041 20.0196 22.7165C19.9072 22.829 19.8408 22.9873 19.8408 23.1508C19.8408 23.3143 19.9072 23.4727 20.0196 23.5851C20.1321 23.6976 20.2904 23.764 20.4539 23.764C20.6174 23.764 20.7758 23.6976 20.8882 23.5851C21.0007 23.4727 21.0671 23.3143 21.0671 23.1508C21.0671 22.9873 21.0007 22.829 20.8882 22.7165C20.7758 22.6041 20.6174 22.5377 20.4539 22.5377Z" fill="#0B488A" stroke="#0B488A" stroke-width="0.2"/>
<path d="M23.0608 23.9275C22.7644 23.7589 22.3914 23.8611 22.2228 24.1575C22.0542 24.4538 22.1564 24.8268 22.4527 24.9954C22.5498 25.0516 22.652 25.0771 22.7542 25.0771C22.9688 25.0771 23.1732 24.9647 23.2856 24.7655C23.4593 24.4691 23.3571 24.0961 23.0608 23.9275Z" fill="#0B488A" stroke="#0B488A" stroke-width="0.2"/>
<path d="M25.4927 25.3376C25.3803 25.2252 25.2219 25.1588 25.0584 25.1588C24.8949 25.1588 24.7365 25.2252 24.6241 25.3376C24.5117 25.45 24.4453 25.6084 24.4453 25.7719C24.4453 25.9354 24.5117 26.0938 24.6241 26.2062C24.7365 26.3186 24.8949 26.3851 25.0584 26.3851C25.2168 26.3851 25.3803 26.3186 25.4927 26.2062C25.6051 26.0938 25.6716 25.9354 25.6716 25.7719C25.6716 25.6084 25.6051 25.4552 25.4927 25.3376Z" fill="#0B488A" stroke="#0B488A" stroke-width="0.2"/>
<path d="M17.859 23.9581C17.5678 24.1319 17.4707 24.5048 17.6393 24.7961C17.7517 24.9902 17.9612 25.0975 18.1707 25.0975C18.278 25.0975 18.3802 25.072 18.4773 25.0158C18.7685 24.8421 18.8656 24.4691 18.697 24.1778C18.5284 23.8866 18.1554 23.7844 17.859 23.9581Z" fill="#0B488A" stroke="#0B488A" stroke-width="0.2"/>
<path d="M15.8817 25.21C15.7233 25.21 15.5598 25.2764 15.4474 25.3888C15.335 25.5012 15.2686 25.6596 15.2686 25.8231C15.2686 25.9866 15.335 26.145 15.4474 26.2574C15.5598 26.3698 15.7182 26.4362 15.8817 26.4362C16.0452 26.4362 16.2036 26.3698 16.316 26.2574C16.4284 26.145 16.4948 25.9866 16.4948 25.8231C16.4948 25.6596 16.4284 25.5012 16.316 25.3888C16.2036 25.2764 16.0452 25.21 15.8817 25.21Z" fill="#0B488A" stroke="#0B488A" stroke-width="0.2"/>
<path d="M11.6861 26.0581H11.6963C12.2685 26.053 12.8101 25.8282 13.2138 25.4194C13.6174 25.0107 13.8371 24.4691 13.832 23.8968C13.8269 22.7166 12.8612 21.7611 11.6861 21.7611H11.6759C11.1036 21.7662 10.562 21.991 10.1584 22.3998C9.75472 22.8085 9.53502 23.3501 9.54013 23.9224C9.54524 25.1027 10.5058 26.0581 11.6861 26.0581ZM11.6861 23.0078C12.1817 23.0078 12.5853 23.4114 12.5904 23.9071C12.5904 24.1472 12.4985 24.3771 12.3299 24.5457C12.1613 24.7143 11.9313 24.8114 11.6912 24.8114H11.6861C11.1905 24.8114 10.7868 24.4078 10.7817 23.9122C10.7817 23.4166 11.1802 23.0129 11.6861 23.0078Z" fill="#0B488A" stroke="#0B488A" stroke-width="0.2"/>
<path d="M14.5528 28.1274C13.909 27.0697 12.928 26.5128 11.7222 26.5128C11.7171 26.5128 11.7069 26.5128 11.7018 26.5128C10.4857 26.5179 9.50471 27.0902 8.86603 28.158C8.40618 28.9296 8.11495 29.9719 8.00254 31.2543C7.97188 31.5916 8.22225 31.8879 8.55947 31.9186C8.5799 31.9186 8.59523 31.9186 8.61056 31.9186C8.92734 31.9186 9.19303 31.6784 9.21858 31.3565C9.42807 28.9602 10.2609 27.7442 11.7018 27.734C11.7069 27.734 11.712 27.734 11.7171 27.734C13.1477 27.734 13.9908 28.9449 14.2258 31.331C14.2565 31.6682 14.5579 31.9135 14.8951 31.8828C15.2324 31.8521 15.4776 31.5507 15.4469 31.2135C15.3243 29.931 15.0229 28.8938 14.5528 28.1274Z" fill="#0B488A" stroke="#0B488A" stroke-width="0.2"/>
</svg>
