<svg width="40" height="40" viewBox="0 0 40 40" fill="none" xmlns="http://www.w3.org/2000/svg">
<circle cx="20" cy="20" r="20" fill="#0B488A"/>
<path d="M31.5464 28.8109H8.90806C8.77149 28.8109 8.66064 28.6978 8.66064 28.5584C8.66064 28.419 8.77149 28.3059 8.90806 28.3059H12.0007V18.5201C12.0007 18.4282 12.0492 18.3438 12.1279 18.2994L17.0109 15.5306V11.1335C17.0109 11.04 17.0613 10.9542 17.142 10.9102L23.0799 7.69039C23.1566 7.64898 23.2492 7.6515 23.3234 7.69696C23.3976 7.74242 23.4431 7.82474 23.4431 7.91364V18.7504L28.3261 21.5192C28.4048 21.5637 28.4533 21.6485 28.4533 21.7399V28.3059H31.546C31.6825 28.3059 31.7934 28.419 31.7934 28.5584C31.7934 28.6978 31.683 28.8109 31.5464 28.8109ZM23.4436 28.3059H27.9589V21.8884L23.4436 19.3282V28.3059ZM17.5057 28.3059H22.9488V18.9035C22.9488 18.9004 22.9488 18.8969 22.9488 18.8939V8.33385L17.5057 11.2855V15.674C17.5057 15.6771 17.5057 15.6806 17.5057 15.6836V28.3059ZM12.4956 28.3059H17.0109V16.1084L12.4956 18.6686V28.3059Z" fill="white"/>
<path fill-rule="evenodd" clip-rule="evenodd" d="M23.299 7.5018C23.299 7.50181 23.299 7.50179 23.299 7.5018L17.1521 10.7455C17.1521 10.7455 17.1521 10.7455 17.1521 10.7455C17.1509 10.7462 17.1499 10.7477 17.1499 10.7493V15.3271L11.9646 18.1884L11.9643 18.1886C11.964 18.1888 11.9638 18.1889 11.9637 18.189C11.9635 18.1892 11.9634 18.1894 11.9632 18.1896C11.9631 18.1898 11.963 18.1901 11.9629 18.1904C11.9628 18.1908 11.9628 18.1912 11.9628 18.1917V28.302H8.50849C8.50759 28.302 8.50729 28.3021 8.50717 28.3021C8.50689 28.3023 8.50637 28.3026 8.50581 28.3031C8.50526 28.3037 8.50497 28.3042 8.50485 28.3044C8.5048 28.3046 8.50467 28.3049 8.50467 28.3058C8.50467 28.3067 8.5048 28.307 8.50485 28.3071C8.50497 28.3074 8.50526 28.3079 8.50581 28.3084C8.50637 28.309 8.50687 28.3093 8.50716 28.3094C8.50727 28.3094 8.50755 28.3096 8.50849 28.3096H31.9466C31.9469 28.3096 31.947 28.3095 31.9472 28.3095C31.9474 28.3095 31.9475 28.3095 31.9475 28.3095C31.9477 28.3094 31.9483 28.3091 31.9488 28.3087C31.9493 28.3082 31.9496 28.3077 31.9497 28.3074C31.9498 28.3072 31.9499 28.3069 31.9499 28.3058C31.9499 28.3048 31.9498 28.3046 31.9497 28.3044C31.9496 28.3042 31.9493 28.3037 31.9488 28.3031C31.9485 28.3028 31.9481 28.3026 31.9479 28.3024C31.9477 28.3023 31.9476 28.3022 31.9474 28.3022C31.9474 28.3021 31.9472 28.3021 31.9469 28.302C31.9467 28.302 31.9464 28.302 31.9461 28.302H28.4918V21.4358C28.4918 21.4356 28.4918 21.4353 28.4917 21.435C28.4917 21.4346 28.4915 21.4342 28.4913 21.4338C28.491 21.4333 28.4908 21.4331 28.4906 21.4329C28.4905 21.4329 28.4907 21.433 28.4906 21.4329L23.3047 18.5713V7.50518C23.3047 7.50307 23.3036 7.502 23.3032 7.50179C23.3028 7.50156 23.3022 7.50132 23.3013 7.50129C23.3004 7.50127 23.2996 7.50149 23.299 7.5018ZM23.063 7.0587C23.2204 6.97601 23.4102 6.98092 23.5629 7.07194C23.7162 7.16334 23.8094 7.32816 23.8094 7.50518V18.2763L28.7347 20.9942C28.7347 20.9942 28.7347 20.9942 28.7347 20.9942C28.8971 21.0835 28.9965 21.2534 28.9965 21.4358V27.8007H31.9461C32.2269 27.8007 32.4546 28.0269 32.4546 28.3058C32.4546 28.584 32.228 28.8109 31.9466 28.8109H8.50849C8.22773 28.8109 8 28.5846 8 28.3058C8 28.0269 8.22773 27.8007 8.50849 27.8007H11.4581V18.1917C11.4581 18.0086 11.5575 17.8395 11.7195 17.7502M11.7199 17.75L16.6452 15.0322V10.7493C16.6452 10.5627 16.7488 10.3911 16.9145 10.3033L23.0626 7.0589L23.063 7.0587M23.2976 7.51158V28.302H17.1575V10.7518L23.2976 7.51158ZM17.6622 11.0531V27.8007H22.7929V8.34555L17.6622 11.0531ZM17.1499 15.3358V28.302H11.9704V18.1938L17.1499 15.3358ZM12.4751 18.4888V27.8007H16.6452V16.1878L12.4751 18.4888ZM23.3052 18.58L28.4847 21.438V28.302H23.3052V18.58ZM23.8099 19.4319V27.8007H27.98V21.7329L23.8099 19.4319Z" fill="white"/>
<path d="M26.3094 26.8281C26.2008 26.8281 26.1128 26.7375 26.1128 26.6258V23.2124C26.1128 23.1006 26.2008 23.0101 26.3094 23.0101C26.418 23.0101 26.506 23.1006 26.506 23.2124V26.6258C26.506 26.7375 26.418 26.8281 26.3094 26.8281ZM24.4663 26.8281C24.3577 26.8281 24.2697 26.7375 24.2697 26.6258V21.5815C24.2697 21.4698 24.3577 21.3793 24.4663 21.3793C24.5749 21.3793 24.6629 21.4698 24.6629 21.5815V26.6258C24.6629 26.7375 24.5749 26.8281 24.4663 26.8281ZM21.1487 26.8281C21.0401 26.8281 20.9521 26.7375 20.9521 26.6258V10.507C20.9521 10.3952 21.0401 10.3047 21.1487 10.3047C21.2573 10.3047 21.3453 10.3952 21.3453 10.507V26.6258C21.3453 26.7375 21.2573 26.8281 21.1487 26.8281ZM19.3056 26.8281C19.1969 26.8281 19.109 26.7375 19.109 26.6258V12.1378C19.109 12.0261 19.1969 11.9355 19.3056 11.9355C19.4142 11.9355 19.5022 12.0261 19.5022 12.1378V26.6258C19.5022 26.7375 19.4142 26.8281 19.3056 26.8281ZM15.988 26.8281C15.8793 26.8281 15.7914 26.7375 15.7914 26.6258V18.1681C15.7914 18.0564 15.8793 17.9659 15.988 17.9659C16.0966 17.9659 16.1846 18.0564 16.1846 18.1681V26.6258C16.1846 26.7375 16.0966 26.8281 15.988 26.8281ZM14.1448 26.8281C14.0362 26.8281 13.9482 26.7375 13.9482 26.6258V19.799C13.9482 19.6872 14.0362 19.5967 14.1448 19.5967C14.2535 19.5967 14.3414 19.6872 14.3414 19.799V26.6258C14.3414 26.7375 14.2535 26.8281 14.1448 26.8281Z" fill="white"/>
<path fill-rule="evenodd" clip-rule="evenodd" d="M20.7413 10.7604C20.7413 10.5087 20.9503 10.3047 21.2082 10.3047C21.466 10.3047 21.675 10.5087 21.675 10.7604V27.0333C21.675 27.285 21.466 27.489 21.2082 27.489C20.9503 27.489 20.7413 27.285 20.7413 27.0333V10.7604ZM18.7798 12.4068C18.7798 12.1551 18.9888 11.9511 19.2467 11.9511C19.5045 11.9511 19.7135 12.1551 19.7135 12.4068V27.0333C19.7135 27.285 19.5045 27.489 19.2467 27.489C18.9888 27.489 18.7798 27.285 18.7798 27.0333V12.4068ZM15.2491 18.4948C15.2491 18.2431 15.4581 18.0391 15.716 18.0391C15.9738 18.0391 16.1828 18.2431 16.1828 18.4948V27.0333C16.1828 27.285 15.9738 27.489 15.716 27.489C15.4581 27.489 15.2491 27.285 15.2491 27.0333V18.4948ZM13.2876 20.1412C13.2876 19.8895 13.4966 19.6856 13.7545 19.6856C14.0123 19.6856 14.2213 19.8895 14.2213 20.1412V27.0333C14.2213 27.285 14.0123 27.489 13.7545 27.489C13.4966 27.489 13.2876 27.285 13.2876 27.0333V20.1412ZM24.272 21.9408C24.272 21.6891 24.481 21.4852 24.7389 21.4852C24.9968 21.4852 25.2057 21.6891 25.2057 21.9408V27.0333C25.2057 27.285 24.9968 27.489 24.7389 27.489C24.481 27.489 24.272 27.285 24.272 27.0333V21.9408ZM26.2335 23.5873C26.2335 23.3356 26.4425 23.1316 26.7004 23.1316C26.9583 23.1316 27.1672 23.3356 27.1672 23.5873V27.0333C27.1672 27.285 26.9583 27.489 26.7004 27.489C26.4425 27.489 26.2335 27.285 26.2335 27.0333V23.5873Z" fill="white"/>
</svg>
