<svg width="40" height="40" viewBox="0 0 40 40" fill="none" xmlns="http://www.w3.org/2000/svg">
<circle cx="20" cy="20" r="20" fill="#0B488A"/>
<path d="M20 7C12.8314 7 7 12.8314 7 20C7 27.1686 12.8314 33 20 33C27.1686 33 33 27.1686 33 20C33 12.8314 27.1686 7 20 7ZM30.782 20.5518H31.8804C31.7478 23.4171 30.6016 26.0171 28.7869 28.0069L28.0122 27.2322C27.7947 27.0147 27.4445 27.0147 27.2322 27.2322C27.0147 27.4498 27.0147 27.8 27.2322 28.0122L28.0069 28.7869C26.0171 30.6016 23.4171 31.7478 20.5518 31.8804V30.782C20.5518 30.4743 20.3024 30.2302 20 30.2302C19.6922 30.2302 19.4482 30.4796 19.4482 30.782V31.8804C16.5829 31.7478 13.9829 30.6016 11.9931 28.7869L12.7678 28.0122C12.9853 27.7947 12.9853 27.4445 12.7678 27.2322C12.5502 27.0147 12.2 27.0147 11.9878 27.2322L11.2131 28.0069C9.40367 26.0171 8.25224 23.4171 8.11959 20.5571H9.21796C9.52571 20.5571 9.7698 20.3078 9.7698 20.0053C9.7698 19.7029 9.52041 19.4535 9.21796 19.4535H8.11959C8.25224 16.5882 9.39837 13.9882 11.2131 11.9984L11.9878 12.7731C12.2053 12.9906 12.5555 12.9906 12.7678 12.7731C12.9853 12.5555 12.9853 12.2053 12.7678 11.9931L11.9931 11.2184C13.9829 9.40367 16.5829 8.25755 19.4482 8.1249V9.22327C19.4482 9.53102 19.6976 9.7751 20 9.7751C20.3078 9.7751 20.5518 9.52571 20.5518 9.22327V8.11959C23.4171 8.25224 26.0171 9.39837 28.0069 11.2131L27.2322 11.9878C27.0147 12.2053 27.0147 12.5555 27.2322 12.7678C27.4498 12.9853 27.8 12.9853 28.0122 12.7678L28.7869 11.9931C30.6016 13.9829 31.7478 16.5829 31.8804 19.4482H30.782C30.4743 19.4482 30.2302 19.6976 30.2302 20C30.2302 20.3024 30.4743 20.5518 30.782 20.5518Z" fill="white" stroke="white" stroke-width="0.5"/>
<path d="M25.7468 19.4481H20.5521V11.7861C20.5521 11.4783 20.3027 11.2343 20.0002 11.2343C19.6925 11.2343 19.4484 11.4836 19.4484 11.7861V19.4481H17.1827C16.8749 19.4481 16.6309 19.6975 16.6309 20C16.6309 20.3024 16.8802 20.5518 17.1827 20.5518H19.4484V22.6424C19.4484 22.9502 19.6978 23.1942 20.0002 23.1942C20.308 23.1942 20.5521 22.9449 20.5521 22.6424V20.5518H25.7468C26.0545 20.5518 26.2986 20.3024 26.2986 20C26.2986 19.6975 26.0492 19.4481 25.7468 19.4481Z" fill="white" stroke="white" stroke-width="0.5"/>
</svg>
