<svg width="73" height="66" viewBox="0 0 73 66" fill="none" xmlns="http://www.w3.org/2000/svg">
<path d="M71.4254 64.7638H1.76136C1.34109 64.7638 1 64.4228 1 64.0025C1 63.5822 1.34109 63.2411 1.76136 63.2411H11.2783V33.7386C11.2783 33.4614 11.4275 33.2072 11.6696 33.0732L26.6958 24.7256V11.4689C26.6958 11.1872 26.8511 10.9284 27.0993 10.7959L45.3718 1.08859C45.6079 0.963724 45.8926 0.971337 46.121 1.10838C46.3494 1.24543 46.4895 1.49363 46.4895 1.76162V34.4329L61.5156 42.7804C61.7577 42.9144 61.907 43.1703 61.907 43.4459V63.2411H71.4239C71.8442 63.2411 72.1853 63.5822 72.1853 64.0025C72.1853 64.4228 71.8457 64.7638 71.4254 64.7638ZM46.491 63.2411H60.3858V43.8936L46.491 36.1749V63.2411ZM28.2185 63.2411H44.9683V34.8943C44.9683 34.8852 44.9683 34.8745 44.9683 34.8654V3.02852L28.2185 11.9273V25.1581C28.2185 25.1672 28.2185 25.1779 28.2185 25.187V63.2411ZM12.801 63.2411H26.6958V26.4676L12.801 34.1863V63.2411Z" fill="#ED2024" stroke="#ED2024" stroke-width="1.5"/>
<path d="M55.4368 60.0432C55.1003 60.0432 54.8278 59.7706 54.8278 59.4341V49.1558C54.8278 48.8193 55.1003 48.5467 55.4368 48.5467C55.7734 48.5467 56.0459 48.8193 56.0459 49.1558V59.4341C56.0459 59.7706 55.7734 60.0432 55.4368 60.0432ZM49.7267 60.0432C49.3902 60.0432 49.1176 59.7706 49.1176 59.4341V44.2451C49.1176 43.9085 49.3902 43.636 49.7267 43.636C50.0632 43.636 50.3358 43.9085 50.3358 44.2451V59.4341C50.3358 59.7706 50.0632 60.0432 49.7267 60.0432ZM39.4484 60.0432C39.1118 60.0432 38.8393 59.7706 38.8393 59.4341V10.8977C38.8393 10.5611 39.1118 10.2886 39.4484 10.2886C39.7849 10.2886 40.0574 10.5611 40.0574 10.8977V59.4341C40.0574 59.7706 39.7849 60.0432 39.4484 60.0432ZM33.7382 60.0432C33.4017 60.0432 33.1291 59.7706 33.1291 59.4341V15.8084C33.1291 15.4719 33.4017 15.1993 33.7382 15.1993C34.0747 15.1993 34.3473 15.4719 34.3473 15.8084V59.4341C34.3473 59.7706 34.0747 60.0432 33.7382 60.0432ZM23.4599 60.0432C23.1234 60.0432 22.8508 59.7706 22.8508 59.4341V33.9667C22.8508 33.6302 23.1234 33.3577 23.4599 33.3577C23.7964 33.3577 24.069 33.6302 24.069 33.9667V59.4341C24.069 59.7706 23.7964 60.0432 23.4599 60.0432ZM17.7497 60.0432C17.4132 60.0432 17.1406 59.7706 17.1406 59.4341V38.8775C17.1406 38.541 17.4132 38.2684 17.7497 38.2684C18.0862 38.2684 18.3588 38.541 18.3588 38.8775V59.4341C18.3588 59.7706 18.0862 60.0432 17.7497 60.0432Z" fill="#ED2024" stroke="#ED2024" stroke-width="1.5"/>
</svg>
