<svg width="28" height="28" viewBox="0 0 28 28" fill="none" xmlns="http://www.w3.org/2000/svg">
<path d="M14 1C6.83143 1 1 6.83143 1 14C1 21.1686 6.83143 27 14 27C21.1686 27 27 21.1686 27 14C27 6.83143 21.1686 1 14 1ZM24.782 14.5518H25.8804C25.7478 17.4171 24.6016 20.0171 22.7869 22.0069L22.0122 21.2322C21.7947 21.0147 21.4445 21.0147 21.2322 21.2322C21.0147 21.4498 21.0147 21.8 21.2322 22.0122L22.0069 22.7869C20.0171 24.6016 17.4171 25.7478 14.5518 25.8804V24.782C14.5518 24.4743 14.3024 24.2302 14 24.2302C13.6922 24.2302 13.4482 24.4796 13.4482 24.782V25.8804C10.5829 25.7478 7.98286 24.6016 5.99306 22.7869L6.76776 22.0122C6.98531 21.7947 6.98531 21.4445 6.76776 21.2322C6.5502 21.0147 6.2 21.0147 5.98776 21.2322L5.21306 22.0069C3.40367 20.0171 2.25224 17.4171 2.11959 14.5571H3.21796C3.52571 14.5571 3.7698 14.3078 3.7698 14.0053C3.7698 13.7029 3.52041 13.4535 3.21796 13.4535H2.11959C2.25224 10.5882 3.39837 7.98816 5.21306 5.99837L5.98776 6.77306C6.20531 6.99061 6.55551 6.99061 6.76776 6.77306C6.98531 6.55551 6.98531 6.20531 6.76776 5.99306L5.99306 5.21837C7.98286 3.40367 10.5829 2.25755 13.4482 2.1249V3.22327C13.4482 3.53102 13.6976 3.7751 14 3.7751C14.3078 3.7751 14.5518 3.52571 14.5518 3.22327V2.11959C17.4171 2.25224 20.0171 3.39837 22.0069 5.21306L21.2322 5.98776C21.0147 6.20531 21.0147 6.55551 21.2322 6.76776C21.4498 6.98531 21.8 6.98531 22.0122 6.76776L22.7869 5.99306C24.6016 7.98286 25.7478 10.5829 25.8804 13.4482H24.782C24.4743 13.4482 24.2302 13.6976 24.2302 14C24.2302 14.3024 24.4743 14.5518 24.782 14.5518Z" fill="#0B488A" stroke="#0B488A" stroke-width="0.5"/>
<path d="M19.7468 13.4481H14.5521V5.78609C14.5521 5.47833 14.3027 5.23425 14.0002 5.23425C13.6925 5.23425 13.4484 5.48364 13.4484 5.78609V13.4481H11.1827C10.8749 13.4481 10.6309 13.6975 10.6309 14C10.6309 14.3024 10.8802 14.5518 11.1827 14.5518H13.4484V16.6424C13.4484 16.9502 13.6978 17.1942 14.0002 17.1942C14.308 17.1942 14.5521 16.9449 14.5521 16.6424V14.5518H19.7468C20.0545 14.5518 20.2986 14.3024 20.2986 14C20.2986 13.6975 20.0492 13.4481 19.7468 13.4481Z" fill="#0B488A" stroke="#0B488A" stroke-width="0.5"/>
</svg>
