<svg width="25" height="22" viewBox="0 0 25 22" fill="none" xmlns="http://www.w3.org/2000/svg">
<path d="M23.5469 21.8109H0.908547C0.771974 21.8109 0.661133 21.6978 0.661133 21.5584C0.661133 21.419 0.771974 21.3059 0.908547 21.3059H4.00122V11.5201C4.00122 11.4282 4.04972 11.3438 4.12839 11.2994L9.01136 8.5306V4.13346C9.01136 4.04002 9.06183 3.95416 9.14249 3.91022L15.0804 0.690394C15.1571 0.648978 15.2497 0.651504 15.3239 0.69696C15.3981 0.742416 15.4436 0.824743 15.4436 0.913635V11.7504L20.3266 14.5192C20.4053 14.5637 20.4538 14.6485 20.4538 14.7399V21.3059H23.5464C23.683 21.3059 23.7939 21.419 23.7939 21.5584C23.7939 21.6978 23.6835 21.8109 23.5469 21.8109ZM15.4441 21.3059H19.9594V14.8884L15.4441 12.3282V21.3059ZM9.50619 21.3059H14.9493V11.9035C14.9493 11.9004 14.9493 11.8969 14.9493 11.8939V1.33385L9.50619 4.28549V8.67404C9.50619 8.67707 9.50619 8.68061 9.50619 8.68364V21.3059ZM4.49605 21.3059H9.01136V9.10841L4.49605 11.6686V21.3059Z"  />
<path fill-rule="evenodd" clip-rule="evenodd" d="M15.299 0.501804C15.299 0.501813 15.299 0.501794 15.299 0.501804L9.15212 3.7455C9.15211 3.74551 9.15214 3.74549 9.15212 3.7455C9.15086 3.7462 9.14988 3.74769 9.14988 3.74931V8.32712L3.96462 11.1884L3.96427 11.1886C3.96403 11.1888 3.96385 11.1889 3.9637 11.189C3.96351 11.1892 3.96337 11.1894 3.96324 11.1896C3.96312 11.1898 3.963 11.1901 3.9629 11.1904C3.96281 11.1908 3.96275 11.1912 3.96275 11.1917V21.302H0.508488C0.507588 21.302 0.507289 21.3021 0.507169 21.3021C0.506888 21.3023 0.506366 21.3026 0.505814 21.3031C0.505262 21.3037 0.504974 21.3042 0.504855 21.3044C0.504803 21.3046 0.504667 21.3049 0.504667 21.3058C0.504667 21.3067 0.504797 21.307 0.504849 21.3071C0.504968 21.3074 0.505262 21.3079 0.505814 21.3084C0.506366 21.309 0.506875 21.3093 0.507155 21.3094C0.507266 21.3094 0.507553 21.3096 0.508488 21.3096H23.9466C23.9469 21.3096 23.947 21.3095 23.9472 21.3095C23.9474 21.3095 23.9475 21.3095 23.9475 21.3095C23.9477 21.3094 23.9483 21.3091 23.9488 21.3087C23.9493 21.3082 23.9496 21.3077 23.9497 21.3074C23.9498 21.3072 23.9499 21.3069 23.9499 21.3058C23.9499 21.3048 23.9498 21.3046 23.9497 21.3044C23.9496 21.3042 23.9493 21.3037 23.9488 21.3031C23.9485 21.3028 23.9481 21.3026 23.9479 21.3024C23.9477 21.3023 23.9476 21.3022 23.9474 21.3022C23.9474 21.3021 23.9472 21.3021 23.9469 21.302C23.9467 21.302 23.9464 21.302 23.9461 21.302H20.4918V14.4358C20.4918 14.4356 20.4918 14.4353 20.4917 14.435C20.4917 14.4346 20.4915 14.4342 20.4913 14.4338C20.491 14.4333 20.4908 14.4331 20.4906 14.4329C20.4905 14.4329 20.4907 14.433 20.4906 14.4329L15.3047 11.5713V0.505177C15.3047 0.503072 15.3036 0.501996 15.3032 0.501794C15.3028 0.501559 15.3022 0.501318 15.3013 0.501294C15.3004 0.501271 15.2996 0.501492 15.299 0.501804ZM15.063 0.0586982C15.2204 -0.0239884 15.4102 -0.0190836 15.5629 0.0719392C15.7162 0.163336 15.8094 0.328156 15.8094 0.505177V11.2763L20.7347 13.9942C20.7347 13.9942 20.7347 13.9942 20.7347 13.9942C20.8971 14.0835 20.9965 14.2534 20.9965 14.4358V20.8007H23.9461C24.2269 20.8007 24.4546 21.0269 24.4546 21.3058C24.4546 21.584 24.228 21.8109 23.9466 21.8109H0.508488C0.227731 21.8109 0 21.5846 0 21.3058C0 21.0269 0.227731 20.8007 0.508488 20.8007H3.45808V11.1917C3.45808 11.0086 3.55755 10.8395 3.71954 10.7502M3.71989 10.75L8.64521 8.03216V3.74931C8.64521 3.56266 8.74877 3.39112 8.91449 3.30326L15.0626 0.0589015L15.063 0.0586982M15.2976 0.511583V21.302H9.15752V3.75182L15.2976 0.511583ZM9.66219 4.05314V20.8007H14.7929V1.34555L9.66219 4.05314ZM9.14988 8.33584V21.302H3.97039V11.1938L9.14988 8.33584ZM4.47506 11.4888V20.8007H8.64521V9.18776L4.47506 11.4888ZM15.3052 11.58L20.4847 14.438V21.302H15.3052V11.58ZM15.8099 12.4319V20.8007H19.98V14.7329L15.8099 12.4319Z" />
<path d="M18.3094 19.8281C18.2008 19.8281 18.1128 19.7375 18.1128 19.6258V16.2124C18.1128 16.1006 18.2008 16.0101 18.3094 16.0101C18.418 16.0101 18.506 16.1006 18.506 16.2124V19.6258C18.506 19.7375 18.418 19.8281 18.3094 19.8281ZM16.4663 19.8281C16.3577 19.8281 16.2697 19.7375 16.2697 19.6258V14.5815C16.2697 14.4698 16.3577 14.3793 16.4663 14.3793C16.5749 14.3793 16.6629 14.4698 16.6629 14.5815V19.6258C16.6629 19.7375 16.5749 19.8281 16.4663 19.8281ZM13.1487 19.8281C13.0401 19.8281 12.9521 19.7375 12.9521 19.6258V3.50696C12.9521 3.39521 13.0401 3.30469 13.1487 3.30469C13.2573 3.30469 13.3453 3.39521 13.3453 3.50696V19.6258C13.3453 19.7375 13.2573 19.8281 13.1487 19.8281ZM11.3056 19.8281C11.1969 19.8281 11.109 19.7375 11.109 19.6258V5.13781C11.109 5.02605 11.1969 4.93553 11.3056 4.93553C11.4142 4.93553 11.5022 5.02605 11.5022 5.13781V19.6258C11.5022 19.7375 11.4142 19.8281 11.3056 19.8281ZM7.98796 19.8281C7.87934 19.8281 7.79136 19.7375 7.79136 19.6258V11.1681C7.79136 11.0564 7.87934 10.9659 7.98796 10.9659C8.09658 10.9659 8.18456 11.0564 8.18456 11.1681V19.6258C8.18456 19.7375 8.09658 19.8281 7.98796 19.8281ZM6.14484 19.8281C6.03622 19.8281 5.94824 19.7375 5.94824 19.6258V12.799C5.94824 12.6872 6.03622 12.5967 6.14484 12.5967C6.25346 12.5967 6.34144 12.6872 6.34144 12.799V19.6258C6.34144 19.7375 6.25346 19.8281 6.14484 19.8281Z"  />
<path fill-rule="evenodd" clip-rule="evenodd" d="M12.7418 3.76035C12.7418 3.50865 12.9508 3.30469 13.2087 3.30469C13.4665 3.30469 13.6755 3.50865 13.6755 3.76035V20.0333C13.6755 20.285 13.4665 20.489 13.2087 20.489C12.9508 20.489 12.7418 20.285 12.7418 20.0333V3.76035ZM10.7803 5.40679C10.7803 5.15509 10.9893 4.95113 11.2472 4.95113C11.505 4.95113 11.714 5.15509 11.714 5.40679V20.0333C11.714 20.285 11.505 20.489 11.2472 20.489C10.9893 20.489 10.7803 20.285 10.7803 20.0333V5.40679ZM7.24959 11.4948C7.24959 11.2431 7.45856 11.0391 7.71645 11.0391C7.97433 11.0391 8.18331 11.2431 8.18331 11.4948V20.0333C8.18331 20.285 7.97433 20.489 7.71645 20.489C7.45856 20.489 7.24959 20.285 7.24959 20.0333V11.4948ZM5.28809 13.1412C5.28809 12.8895 5.49706 12.6856 5.75495 12.6856C6.01283 12.6856 6.2218 12.8895 6.2218 13.1412V20.0333C6.2218 20.285 6.01283 20.489 5.75495 20.489C5.49706 20.489 5.28809 20.285 5.28809 20.0333V13.1412ZM16.2725 14.9408C16.2725 14.6891 16.4815 14.4852 16.7394 14.4852C16.9972 14.4852 17.2062 14.6891 17.2062 14.9408V20.0333C17.2062 20.285 16.9972 20.489 16.7394 20.489C16.4815 20.489 16.2725 20.285 16.2725 20.0333V14.9408ZM18.234 16.5873C18.234 16.3356 18.443 16.1316 18.7009 16.1316C18.9587 16.1316 19.1677 16.3356 19.1677 16.5873V20.0333C19.1677 20.285 18.9587 20.489 18.7009 20.489C18.443 20.489 18.234 20.285 18.234 20.0333V16.5873Z"  />
</svg>
